<svg xmlns="http://www.w3.org/2000/svg" version="1.1" xmlns:xlink="http://www.w3.org/1999/xlink" xmlns:svgjs="http://svgjs.com/svgjs" width="512" height="512"><svg width="512" height="512" viewBox="0 0 512 512" fill="none" xmlns="http://www.w3.org/2000/svg">
<g clip-path="url(#clip0_6504_27994)">
<rect width="512" height="512" rx="64" fill="white"></rect>
<path d="M256.002 487.581C128.192 487.581 24.4199 383.809 24.4199 255.999C24.4199 128.189 128.192 24.4175 256.002 24.4175C383.812 24.4175 487.584 128.189 487.584 255.999C487.584 383.809 383.812 487.581 256.002 487.581ZM256.002 30.1391C131.244 30.1391 30.1416 131.242 30.1416 255.999C30.1416 380.757 131.627 481.859 256.002 481.859C380.759 481.859 481.862 380.374 481.862 255.999C481.862 131.242 380.759 30.1391 256.002 30.1391Z" fill="#2A2A2A"></path>
<path d="M213.087 178.718C211.222 178.718 207.741 181.577 204.756 184.19C201.025 187.671 197.419 191.527 193.812 195.258C181.25 204.833 165.457 217.023 153.144 226.971C137.723 239.283 132.998 243.511 120.561 252.217C112.476 257.939 105.389 262.292 101.161 262.292C98.7982 262.292 97.5545 261.545 97.5545 259.307C97.5545 256.82 99.4201 252.592 104.145 245.873C108.745 239.533 116.954 230.08 127.526 220.255C140.46 208.317 154.885 197.249 167.569 188.915C170.307 187.049 173.166 185.558 175.282 184.065C177.147 184.687 178.763 185.309 180.007 185.93C181.003 186.427 181.5 186.927 181.997 186.552C182.494 185.93 181.872 185.184 180.878 184.687C179.385 183.818 178.141 183.443 176.151 182.699C176.525 182.199 176.525 181.952 176.525 181.577C176.525 181.205 176.151 180.956 175.407 180.956C175.157 180.956 174.038 180.956 172.669 181.577C168.316 180.334 159.61 177.971 144.813 177.971C129.017 177.971 110.114 179.962 92.5796 192.274C76.5362 203.467 70.5674 217.645 70.5674 230.205C70.5674 242.392 76.4112 248.486 81.8831 251.223C82.5049 251.47 83.2517 251.595 83.2517 251.098C83.3766 250.601 82.5049 250.104 81.8831 249.73C78.5267 247.242 72.805 242.767 72.805 230.577C72.805 219.633 78.8987 207.199 94.6923 196.252C112.476 183.94 128.895 180.334 146.679 180.334C156.504 180.334 163.716 181.455 169.81 182.821C156.379 189.662 138.595 202.471 127.029 212.67C114.717 223.614 104.395 235.18 99.2952 242.767C94.4452 249.979 93.2015 254.579 93.2015 257.564C93.2015 263.161 96.8077 264.529 99.917 264.529C104.892 264.529 111.979 260.673 121.432 254.207C128.895 249.233 141.454 239.283 154.138 228.711C159.61 224.236 164.96 219.633 170.057 215.405C170.432 215.158 170.804 215.655 170.432 215.902C165.332 220.505 160.482 224.983 156.379 229.333C145.435 240.776 138.345 251.223 138.345 257.192C138.345 260.051 139.588 261.173 140.957 261.048C141.951 258.685 143.569 255.823 145.31 253.211C151.776 243.014 161.229 231.698 167.322 225.23C180.256 211.674 193.563 198.99 195.428 196.999C199.284 194.761 206.372 190.658 211.347 185.93C213.337 184.065 214.581 181.952 214.581 180.459C214.581 179.59 214.084 178.718 213.087 178.718Z" fill="#2A2A2A"></path>
<path d="M211.087 209.684C210.091 209.561 208.6 209.561 207.231 209.809C205.616 210.183 203.5 211.302 201.759 212.546C195.416 217.024 183.726 227.842 177.757 233.811C172.038 239.533 158.357 253.461 146.045 268.51C138.957 277.339 133.235 285.673 131.992 290.273C131.495 292.014 131.245 294.626 132.239 294.626C132.861 294.626 134.104 292.635 135.598 290.523C149.526 271.245 162.46 257.564 174.026 245.999C183.478 236.299 201.013 222.618 206.113 222.743C206.859 222.743 207.356 222.992 207.356 223.739C207.356 226.349 200.144 233.686 195.541 238.289C181.116 253.089 176.888 256.198 172.16 256.198C170.544 256.198 169.922 255.451 169.55 254.705C169.301 254.208 169.176 253.586 168.554 253.711C167.685 253.833 167.807 255.948 169.051 256.942C169.922 257.689 171.166 258.064 172.782 258.064C180.494 258.064 190.194 252.714 201.138 241.646C206.485 236.299 210.466 229.458 210.466 224.236C210.466 222.121 209.969 220.38 207.481 220.38C201.635 220.38 187.085 231.699 181.985 236.424C181.863 236.548 181.613 236.299 181.863 236.174C187.582 229.708 198.65 218.887 205.491 213.293C207.231 211.799 209.222 210.555 211.087 209.684Z" fill="#2A2A2A"></path>
<path d="M261.08 220.873C259.464 220.749 255.733 221.37 254.364 222.117C249.39 225.102 240.436 233.436 235.461 238.533C233.471 240.648 226.88 246.992 223.646 249.479C220.537 252.089 214.693 256.07 212.206 256.07C211.459 256.07 211.087 255.695 211.087 254.951C211.087 253.457 213.449 250.473 216.434 246.742C220.787 241.395 231.73 230.698 242.799 221.62C241.058 221.495 236.952 221.992 235.087 223.114C229.99 225.973 220.912 233.436 216.062 238.533C210.34 244.626 206.859 250.223 206.859 254.329C206.859 256.567 207.977 258.06 211.087 258.06C214.818 258.06 220.662 253.954 224.518 250.845C225.512 249.976 227.252 248.732 228.871 247.114C227.377 249.601 226.506 251.966 226.506 253.829C226.506 256.317 227.502 258.06 230.859 258.06C234.715 258.06 239.939 253.829 243.918 250.845C246.655 248.732 252.374 243.757 255.98 240.648C256.602 240.151 256.727 239.654 256.355 239.279C255.858 238.783 255.358 239.155 254.736 239.529C251.38 242.389 246.655 246.492 242.674 249.726C239.815 251.842 234.218 256.07 231.73 256.07C230.859 256.07 230.487 255.573 230.487 254.951C230.487 253.457 232.974 250.473 235.958 246.742C240.311 241.395 250.386 230.698 261.08 220.873Z" fill="#2A2A2A"></path>
<path d="M276.87 255.076C276.87 253.21 278.982 250.351 281.844 246.869C286.197 241.769 297.016 230.701 307.71 221.126C306.094 221.001 302.738 221.373 300.872 222.37C297.885 223.985 292.913 228.089 288.682 232.069C285.698 234.929 281.967 236.919 279.232 236.919C277.242 236.919 275.873 235.429 273.51 235.429C271.645 235.429 268.785 237.416 266.548 239.157C272.392 232.194 280.723 224.36 285.576 221.126C282.466 221.126 278.857 221.748 276.745 223.116C273.76 225.104 269.282 228.96 265.304 233.188C257.592 241.272 248.764 252.838 248.764 255.947C248.764 257.441 249.386 258.807 250.379 258.807C254.732 253.21 258.711 247.988 263.561 243.138C264.557 242.144 268.413 238.413 270.401 238.413C272.392 238.413 273.138 240.154 275.501 240.154C278.36 240.154 282.092 237.791 283.957 236.547C281.47 239.035 279.107 241.645 277.117 244.257C274.382 247.863 272.517 251.719 272.517 254.332C272.517 257.066 273.885 258.31 276.87 258.31C280.973 258.31 286.57 254.704 290.548 251.719C293.535 249.482 300.373 243.635 303.607 240.776C304.104 240.279 304.479 239.779 304.104 239.407C303.482 238.785 302.985 239.157 302.238 239.904C299.629 242.144 293.657 247.241 289.429 250.475C286.32 252.713 280.848 256.319 278.238 256.319C277.367 256.319 276.87 255.822 276.87 255.076Z" fill="#2A2A2A"></path>
<path d="M352.725 221.625H351.732C350.363 221.625 349.244 221.625 347.876 222.122C345.885 222.869 341.657 225.728 337.801 229.459C337.554 229.709 337.554 229.459 337.679 229.335C340.413 226.6 341.285 224.485 341.285 223.119C341.285 221.003 339.544 220.381 337.304 220.381C330.216 220.381 316.785 227.969 308.329 236.55C302.732 242.146 298.504 249.484 298.626 253.959C298.626 256.447 299.87 258.065 302.854 258.065C306.835 258.065 314.67 252.593 321.882 246.125C319.273 249.359 318.276 252.094 318.276 253.834C318.276 256.696 319.645 258.065 322.629 258.065C326.235 258.065 332.329 253.587 336.06 250.603C339.169 248.115 343.897 244.134 347.626 240.653C348.248 240.156 348.747 239.659 348.248 239.159C347.751 238.537 347.004 239.159 346.507 239.409C343.522 242.022 338.922 246.25 334.941 249.359C331.585 251.846 325.863 256.074 323.501 256.074C322.629 256.074 322.257 255.578 322.257 254.956C322.257 253.337 324.37 250.478 327.479 246.872C331.832 241.772 342.032 231.2 352.725 221.625ZM339.544 223.616C339.544 226.725 331.46 234.434 327.107 238.787C317.282 248.862 307.085 256.199 303.851 256.199C302.732 256.199 302.607 255.7 302.607 254.956C302.607 252.218 307.829 245.628 314.048 239.534C325.738 228.341 334.569 222.247 338.051 222.247C339.045 222.247 339.544 222.744 339.544 223.616Z" fill="#2A2A2A"></path>
<path d="M291.72 281.586C291.647 281.366 291.128 281.736 289.721 281.736C286.24 281.736 276.98 279.661 271.351 278.254C272.611 277.144 274.832 275.81 277.203 274.846C277.868 274.55 278.46 274.477 278.46 274.181C278.46 273.736 277.721 273.885 276.757 274.181C274.091 274.92 270.981 276.772 269.648 277.885C258.091 275.514 244.907 273.366 234.536 273.366C204.537 273.366 193.871 287.511 194.093 297.882C194.169 302.624 196.317 304.921 197.056 305.437C193.871 309.809 192.317 314.178 192.317 318.032C192.317 325.363 197.575 327.658 202.761 327.881C217.648 328.549 232.464 318.401 246.24 303.807C252.907 296.772 261.944 286.996 270.017 279.81C276.016 280.994 284.757 282.55 288.461 282.55C290.313 282.55 291.943 282.181 291.72 281.586ZM267.869 279.438C260.388 285.29 252.388 293.29 242.685 302.55C229.944 314.697 215.057 326.993 203.057 326.697C198.389 326.547 193.428 324.994 193.428 318.624C193.428 312.03 199.799 304.772 209.205 298.105C215.057 293.882 224.464 288.845 231.5 288.845C235.351 288.845 238.759 290.477 238.832 294.55C238.832 295.511 238.759 296.03 239.131 296.03C239.351 296.03 239.647 295.511 239.647 294.773C239.869 289.513 235.796 287.81 230.536 287.81C222.685 287.81 213.428 291.511 207.353 295.661C203.427 298.401 200.095 301.586 197.501 304.845C196.317 303.661 195.204 301.217 195.204 297.809C195.057 287.81 206.093 275.957 234.389 275.957C243.796 275.957 258.463 277.809 267.869 279.438Z" fill="#2A2A2A"></path>
<path d="M266.528 300.252C262.452 300.252 255.788 303.66 250.675 308.844C247.047 312.622 244.899 316.698 244.899 319.362C244.899 321.586 246.083 322.843 248.084 322.843C251.047 322.843 256.676 319.066 262.601 313.067C267.193 308.475 269.341 304.622 269.341 302.4C269.341 300.844 268.304 300.252 266.528 300.252ZM268.157 302.104C268.157 304.03 264.304 308.622 261.787 311.215C255.712 317.436 250.379 321.955 248.157 321.955C247.492 321.955 246.973 321.659 246.973 320.695C246.973 318.846 250.009 315.288 253.417 311.66C259.489 305.436 264.972 301.29 267.267 301.29C267.861 301.29 268.157 301.586 268.157 302.104Z" fill="#2A2A2A"></path>
<path d="M293.703 293.885C293.111 293.812 292.223 293.812 291.408 293.961C290.444 294.181 289.184 294.849 288.147 295.591C284.369 298.257 277.407 304.701 273.852 308.256C270.444 311.664 262.297 319.96 254.963 328.921C250.743 334.181 247.335 339.143 246.593 341.885C246.297 342.92 246.151 344.476 246.743 344.476C247.112 344.476 247.853 343.292 248.741 342.032C257.037 330.551 264.741 322.404 271.631 315.515C277.26 309.739 287.704 301.589 290.74 301.663C291.185 301.663 291.481 301.812 291.481 302.257C291.481 303.811 287.185 308.183 284.445 310.923C275.853 319.737 273.333 321.589 270.52 321.589C269.556 321.589 269.187 321.144 268.964 320.699C268.815 320.403 268.741 320.033 268.372 320.107C267.853 320.183 267.927 321.44 268.668 322.032C269.187 322.477 269.925 322.7 270.889 322.7C275.481 322.7 281.26 319.515 287.777 312.921C290.963 309.739 293.333 305.663 293.333 302.553C293.333 301.293 293.037 300.256 291.555 300.256C288.073 300.256 279.408 306.996 276.369 309.812C276.296 309.885 276.149 309.739 276.296 309.663C279.704 305.812 286.297 299.368 290.371 296.033C291.408 295.145 292.592 294.404 293.703 293.885Z" fill="#2A2A2A"></path>
<path d="M342.444 278.625C335.112 282.625 331.112 286.774 325.483 293.145C322.298 296.7 319.927 299.513 315.482 304.773C316 303.809 316.223 302.994 316.223 302.402C316.223 300.7 314.816 300.254 313.41 300.254C309.483 300.254 302.67 303.662 297.556 308.846C293.928 312.624 291.854 316.624 291.854 319.364C291.854 321.661 293.26 322.845 295.408 322.845C300.003 322.845 307.854 316.032 318.816 303.809C327.778 293.81 330.444 289.441 336.296 284.108C340.37 280.404 345.26 278.701 349.407 278.701C353.556 278.701 354.963 279.293 357.407 279.293C359.628 279.293 361.407 278.774 363.628 276.7C365.035 275.366 365.999 274.329 367.482 272.331C367.628 272.108 367.851 271.662 367.555 271.516C367.332 271.366 367.11 271.589 366.963 271.812C365.703 273.072 364.666 273.96 363.628 274.701C362.814 275.293 361.334 276.035 358.963 276.035C356.962 276.035 355.851 275.739 352.666 275.739C349.703 275.739 345.852 276.773 342.444 278.625ZM315.039 302.106C315.039 304.105 311.186 308.624 308.668 311.217C302.594 317.438 297.26 321.884 295.112 321.884C294.151 321.884 293.928 321.216 293.928 320.624C293.928 318.772 296.891 315.29 300.299 311.662C306.371 305.438 311.78 301.292 314.148 301.292C314.743 301.292 315.039 301.588 315.039 302.106Z" fill="#2A2A2A"></path>
<path d="M346.371 300.552C345.41 300.478 343.186 300.848 342.371 301.293C339.408 303.072 335.186 307.292 332.076 310.33C329.632 312.625 325.632 316.329 323.78 317.812C321.632 319.441 318.594 321.516 317.263 321.516C316.818 321.516 316.595 321.293 316.595 320.848C316.595 319.96 318.002 318.181 319.78 315.96C322.374 312.774 328.891 306.404 335.484 300.997C334.447 300.924 332.003 301.22 330.89 301.885C327.854 303.591 322.447 308.033 319.558 311.069C316.15 314.7 314.078 318.035 314.078 320.478C314.078 321.812 314.743 322.7 316.595 322.7C318.594 322.7 321.706 320.625 324.299 318.626C324.891 318.108 327.039 316.256 328.522 314.922C328.668 314.773 328.891 314.849 328.668 315.069C325.559 318.773 317.187 326.922 311.335 331.661C304.744 336.921 295.707 342.404 286.746 342.181C280.744 342.032 274.819 339.292 273.855 333.885C273.708 333.293 273.635 332.552 273.263 332.698C272.894 332.774 272.671 333.513 272.894 334.624C274.004 340.256 280.079 343.365 287.115 343.438C295.115 343.588 305.336 339.81 314.743 332.552C321.559 327.218 328.076 320.106 332.818 314.626C338.075 308.625 342.298 304.329 346.371 300.552Z" fill="#2A2A2A"></path>
<path d="M354.66 320.919C354.66 319.809 355.92 318.106 357.623 316.031C360.216 312.995 366.66 306.402 373.031 300.699C372.067 300.623 370.068 300.846 368.955 301.441C367.179 302.402 364.216 304.846 361.696 307.217C359.92 308.919 357.696 310.106 356.067 310.106C354.883 310.106 354.068 309.218 352.661 309.218C351.548 309.218 349.845 310.402 348.512 311.439C351.993 307.29 356.957 302.625 359.844 300.699C357.992 300.699 355.844 301.069 354.587 301.883C352.808 303.07 350.141 305.365 347.771 307.885C343.179 312.699 337.919 319.586 337.919 321.438C337.919 322.329 338.291 323.143 338.883 323.143C341.476 319.809 343.847 316.699 346.733 313.81C347.328 313.218 349.623 310.994 350.809 310.994C351.993 310.994 352.439 312.031 353.845 312.031C355.548 312.031 357.772 310.625 358.883 309.883C357.4 311.366 355.993 312.919 354.809 314.475C353.177 316.623 352.067 318.921 352.067 320.477C352.067 322.106 352.881 322.845 354.66 322.845C357.104 322.845 360.439 320.697 362.807 318.921C364.585 317.587 368.659 314.106 370.584 312.401C370.883 312.105 371.103 311.809 370.883 311.586C370.511 311.217 370.215 311.439 369.769 311.885C368.216 313.218 364.659 316.254 362.141 318.179C360.289 319.513 357.031 321.661 355.475 321.661C354.956 321.661 354.66 321.365 354.66 320.919Z" fill="#2A2A2A"></path>
<path d="M389.764 300.255C385.688 300.255 379.024 303.663 373.911 308.847C370.283 312.624 368.135 316.7 368.135 319.364C368.135 321.588 369.319 322.846 371.32 322.846C374.283 322.846 379.912 319.068 385.838 313.07C390.43 308.478 392.578 304.624 392.578 302.403C392.578 300.847 391.54 300.255 389.764 300.255ZM391.394 302.107C391.394 304.032 387.54 308.624 385.023 311.218C378.948 317.439 373.615 321.958 371.394 321.958C370.728 321.958 370.21 321.662 370.21 320.698C370.21 318.848 373.246 315.291 376.654 311.663C382.726 305.439 388.208 301.292 390.503 301.292C391.098 301.292 391.394 301.588 391.394 302.107Z" fill="#2A2A2A"></path>
<path d="M392.575 322.841C398.131 322.841 405.613 317.51 410.131 312.769C413.537 309.214 415.761 305.657 415.761 303.14C415.761 301.51 414.87 300.324 412.871 300.324C414.87 299.509 418.427 297.733 420.426 296.769C429.613 292.324 435.538 287.585 435.538 283.881C435.538 282.474 434.427 281.364 432.353 281.364C429.39 281.364 425.537 283.066 421.759 285.437C415.093 289.806 406.058 297.88 397.762 306.621C391.834 312.769 388.871 317.212 388.871 319.954C388.871 321.88 390.205 322.841 392.575 322.841ZM426.647 284.696C427.981 283.808 430.129 282.252 432.353 282.252C433.39 282.252 433.982 282.697 433.982 283.658C433.982 286.398 427.166 292.104 419.907 295.805C415.611 298.029 410.797 300.104 407.093 301.51C413.021 295.585 421.018 288.546 426.647 284.696ZM413.241 301.953C413.241 303.954 408.798 309.434 406.65 311.582C400.353 317.806 395.687 321.953 392.575 321.953C391.761 321.953 391.169 321.584 391.169 320.473C391.169 317.212 399.834 307.881 405.094 304.028C406.501 302.99 409.686 300.918 411.761 300.918C412.502 300.918 413.241 301.214 413.241 301.953Z" fill="#2A2A2A"></path>
<path d="M446.06 300.996H445.468C444.654 300.996 443.988 300.996 443.171 301.292C441.987 301.738 439.47 303.44 437.172 305.662C437.023 305.811 437.023 305.662 437.099 305.588C438.728 303.959 439.247 302.699 439.247 301.884C439.247 300.624 438.21 300.255 436.876 300.255C432.654 300.255 424.654 304.774 419.616 309.884C416.284 313.219 413.767 317.588 413.84 320.255C413.84 321.735 414.582 322.699 416.358 322.699C418.728 322.699 423.396 319.44 427.692 315.587C426.136 317.515 425.544 319.144 425.544 320.182C425.544 321.884 426.359 322.699 428.135 322.699C430.283 322.699 433.914 320.032 436.135 318.254C437.987 316.774 440.803 314.403 443.024 312.328C443.394 312.032 443.69 311.736 443.394 311.44C443.098 311.068 442.655 311.44 442.356 311.587C440.58 313.143 437.84 315.663 435.47 317.515C433.468 318.995 430.06 321.515 428.654 321.515C428.135 321.515 427.912 321.216 427.912 320.847C427.912 319.883 429.172 318.18 431.024 316.032C433.618 312.996 439.69 306.699 446.06 300.996ZM438.21 302.18C438.21 304.032 433.395 308.624 430.802 311.218C424.95 317.216 418.878 321.588 416.952 321.588C416.284 321.588 416.211 321.292 416.211 320.847C416.211 319.218 419.32 315.291 423.024 311.663C429.987 304.996 435.247 301.366 437.322 301.366C437.914 301.366 438.21 301.662 438.21 302.18Z" fill="#2A2A2A"></path>
</g>
<defs>
<clipPath id="SvgjsClipPath1000">
<rect width="512" height="512" fill="white"></rect>
</clipPath>
</defs>
</svg><style>@media (prefers-color-scheme: light) { :root { filter: none; } }
@media (prefers-color-scheme: dark) { :root { filter: none; } }
</style></svg>