<?xml version="1.0" encoding="UTF-8"?>
<!DOCTYPE svg PUBLIC "-//W3C//DTD SVG 1.1//EN" "http://www.w3.org/Graphics/SVG/1.1/DTD/svg11.dtd">
<!-- Creator: CorelDRAW 2017 -->
<svg xmlns="http://www.w3.org/2000/svg" xml:space="preserve" width="10.1598mm" height="10.1598mm" version="1.1" style="shape-rendering:geometricPrecision; text-rendering:geometricPrecision; image-rendering:optimizeQuality; fill-rule:evenodd; clip-rule:evenodd"
viewBox="0 0 1015.98 1015.98"
 xmlns:xlink="http://www.w3.org/1999/xlink">
 <defs>
  <style type="text/css">
   <![CDATA[
    .fil1 {fill:#74BBDE}
    .fil0 {fill:#21A8D3}
    .fil2 {fill:#1D70B2}
   ]]>
  </style>
 </defs>
 <g id="РЎР_x00bb_РѕР_x2116__x0020_1">
  <metadata id="CorelCorpID_0Corel-Layer"/>
  <g id="_988391184">
   <g>
    <path class="fil0" d="M226.06 381.48c72.2,-72.19 138.61,-124.24 142.59,-120.26 3.98,3.98 -48.49,70.64 -120.69,142.84 -72.2,72.19 -136.79,122.6 -140.77,118.62 -3.98,-3.99 46.67,-69 118.87,-141.2zm65 65l0 0c-72.2,72.2 -122.86,137.21 -118.87,141.2 3.98,3.98 68.56,-46.43 140.76,-118.63 72.2,-72.2 124.68,-138.85 120.7,-142.83 -3.99,-3.98 -70.4,48.06 -142.59,120.26zm61.21 61.22l0 0c-72.2,72.2 -122.85,137.21 -118.87,141.19 3.99,3.98 68.57,-46.42 140.77,-118.63 72.2,-72.19 124.67,-138.84 120.69,-142.83 -3.98,-3.98 -70.39,48.06 -142.59,120.27zm63.23 63.22l0 0c-72.2,72.19 -122.86,137.21 -118.88,141.19 3.99,3.98 68.57,-46.42 140.77,-118.62 72.2,-72.2 124.68,-138.86 120.69,-142.83 -3.98,-3.99 -70.39,48.06 -142.58,120.26z"/>
   </g>
  </g>
  <g id="_988393648">
   <g>
    <path class="fil1" d="M735.1 128.6c72.2,72.2 124.25,138.61 120.27,142.59 -3.98,3.98 -70.64,-48.49 -142.84,-120.69 -72.2,-72.2 -122.6,-136.79 -118.62,-140.77 3.98,-3.98 69,46.67 141.19,118.87zm-63.68 63.69l0 0c-72.2,-72.2 -137.21,-122.85 -141.2,-118.87 -3.98,3.98 46.43,68.57 118.63,140.76 72.19,72.2 138.85,124.68 142.83,120.7 3.98,-3.99 -48.06,-70.39 -120.26,-142.59zm-63.69 63.68l0 0c-72.2,-72.2 -137.21,-122.85 -141.19,-118.87 -3.99,3.99 46.42,68.57 118.62,140.77 72.2,72.2 138.85,124.67 142.83,120.69 3.99,-3.98 -48.06,-70.39 -120.26,-142.59zm-63.69 63.69l0 0c-72.2,-72.2 -137.21,-122.85 -141.19,-118.87 -3.98,3.99 46.42,68.57 118.62,140.77 72.2,72.2 138.85,124.67 142.84,120.69 3.98,-3.98 -48.07,-70.39 -120.27,-142.59z"/>
   </g>
  </g>
  <g id="_988388720">
   <g>
    <path class="fil2" d="M824.92 810.9c-3.99,3.98 -70.64,-48.5 -142.84,-120.69 -72.2,-72.2 -122.61,-136.79 -118.62,-140.77 3.98,-3.98 68.99,46.67 141.19,118.87 72.2,72.2 124.25,138.61 120.27,142.59zm-326.46 -196.46l0 0c-3.98,3.98 46.42,68.56 118.62,140.76 72.2,72.2 138.86,124.67 142.84,120.7 3.98,-3.99 -48.07,-70.4 -120.27,-142.59 -72.2,-72.21 -137.21,-122.86 -141.19,-118.87zm-61.22 61.21l0 0c-3.98,3.99 46.43,68.57 118.63,140.77 72.2,72.2 138.85,124.67 142.83,120.69 3.98,-3.99 -48.06,-70.39 -120.26,-142.59 -72.2,-72.2 -137.21,-122.85 -141.2,-118.87zm-63.22 63.22l0 0c-3.98,3.99 46.43,68.57 118.63,140.77 72.19,72.2 138.85,124.67 142.83,120.69 3.99,-3.98 -48.06,-70.39 -120.26,-142.59 -72.2,-72.19 -137.21,-122.85 -141.2,-118.87z"/>
   </g>
  </g>
 </g>
</svg>
