<svg width="145" height="46" fill="none" xmlns="http://www.w3.org/2000/svg"><g clip-path="url(#a)" fill="#5E5E5E"><path d="M123.927 21.677v11.39h3.641v-7.593h13.315v7.594h3.64v-11.39h-20.596Zm3.225-3.693h14.043c1.976-.364 3.38-2.132 3.796-3.797h-21.636c.416 1.665 1.872 3.381 3.797 3.797Zm-14.304 15.084c1.821-.78 2.809-2.133 3.225-3.693H99.69V14.239h-3.693v18.829h16.851ZM68.691 17.932h13.003c1.976-.572 3.588-2.08 4.005-3.692H65.102v11.13h16.852v3.9H68.743c-2.08.573-3.849 1.977-4.733 3.798h21.584v-11.39H68.743l-.052-3.746Zm-32.04.052h14.044c1.976-.364 3.433-2.132 3.797-3.797H32.803c.416 1.665 1.872 3.381 3.849 3.797Zm0 7.438h14.044c1.976-.364 3.433-2.133 3.797-3.797H32.803c.416 1.665 1.872 3.38 3.849 3.797Zm0 7.646h14.044c1.976-.364 3.433-2.133 3.797-3.797H32.803c.416 1.664 1.872 3.433 3.849 3.797ZM.088 14.24c.416 1.664 1.872 3.328 3.797 3.744h5.929l.312.104v14.928h3.693V18.088l.312-.104h5.93c1.976-.52 3.38-2.08 3.796-3.745v-.052l-23.77.053Z"/></g><defs><clipPath id="a"><path fill="#fff" transform="translate(.088)" d="M0 0h144.602v45.365H0z"/></clipPath></defs></svg>