<svg width="571" height="194" fill="none" xmlns="http://www.w3.org/2000/svg"><path d="M539.513 139.063v30.466h-4.947s1.067-14.723 2.219-30.466h2.728ZM84.908 179.479c.955 0 1.717.086 2.282.257.566.172.977.476 1.225.908.248.433.377 1.045.377 1.833 0 .822-.15 1.448-.45 1.884-.3.433-.8.686-1.498.75v.064c.865.077 1.468.377 1.798.899.334.523.501 1.247.501 2.167 0 .788-.128 1.401-.381 1.833-.257.433-.655.737-1.2.908-.543.171-1.258.261-2.149.261-.578 0-1.109-.012-1.597-.042a12.723 12.723 0 0 1-2.617-.407l.167-1.435c.544.064 1.127.129 1.748.18.62.056 1.267.086 1.93.086.502 0 .892-.047 1.174-.142a1 1 0 0 0 .608-.522c.125-.257.184-.621.184-1.101 0-.509-.064-.908-.192-1.19a1.122 1.122 0 0 0-.643-.6c-.3-.115-.71-.175-1.233-.175h-2.098v-1.482h2.098c.454-.009.81-.064 1.066-.159a.92.92 0 0 0 .549-.501c.11-.239.167-.573.167-1.006 0-.445-.06-.788-.176-1.032-.116-.244-.321-.411-.608-.501-.287-.09-.677-.133-1.165-.133-.634 0-1.203.022-1.717.069-.51.042-.998.085-1.465.132l-.15-1.498a18.263 18.263 0 0 1 1.598-.227 18.318 18.318 0 0 1 1.867-.078Zm11.432.13a.773.773 0 0 1 .749.549l3.481 10.945h-2.132l-2.634-8.864c-.043-.176-.09-.356-.133-.531a8.738 8.738 0 0 1-.115-.518h-.467c-.034.167-.073.338-.116.518a8.359 8.359 0 0 1-.15.531l-2.616 8.864h-2.133l3.482-10.945a.692.692 0 0 1 .274-.399.766.766 0 0 1 .475-.15h2.034Zm1.935 6.582v1.632h-5.914v-1.632h5.914Zm7.762-6.712c.989 0 1.773.086 2.347.257.578.172.993.476 1.25.908.257.433.381 1.045.381 1.833 0 .822-.154 1.448-.466 1.884-.313.433-.823.686-1.534.75v.064c.878.077 1.491.377 1.842.899.351.523.527 1.247.527 2.167 0 .788-.133 1.401-.39 1.833-.261.433-.672.737-1.233.908-.561.171-1.289.261-2.193.261-.698 0-1.306-.004-1.824-.008a47.966 47.966 0 0 1-1.435-.043c-.437-.021-.891-.051-1.357-.081l.248-1.516a116.189 116.189 0 0 0 4.013.051c.535 0 .95-.047 1.25-.141.3-.095.51-.27.634-.531.12-.262.184-.63.184-1.105 0-.535-.064-.942-.193-1.225a1.116 1.116 0 0 0-.659-.6c-.313-.115-.745-.175-1.298-.175h-3.948v-1.418h3.931c.475 0 .852-.047 1.126-.141a.985.985 0 0 0 .591-.51c.12-.244.184-.595.184-1.049 0-.454-.064-.805-.192-1.049-.129-.244-.343-.407-.643-.492-.299-.082-.715-.125-1.25-.125h-1.567c-.454 0-.861.005-1.217.009-.355.009-.672.021-.95.043l-.249-1.516c.424-.043.827-.073 1.216-.09.39-.017.81-.03 1.268-.034.458-.017.994-.018 1.606-.018Zm-2.051.129v11.498h-2.034v-11.498h2.034Zm12.86-.212c.887 0 1.64.098 2.248.291.613.192 1.101.518 1.465.976.368.454.634 1.066.809 1.833.172.767.257 1.722.257 2.865 0 1.135-.085 2.085-.257 2.856-.171.771-.441 1.384-.809 1.842-.368.454-.857.779-1.465.976-.612.193-1.361.291-2.248.291-.865 0-1.606-.098-2.214-.291-.612-.197-1.105-.518-1.482-.976-.377-.458-.651-1.071-.818-1.842-.167-.771-.248-1.725-.248-2.856 0-1.143.086-2.098.248-2.865.167-.767.441-1.375.818-1.833.377-.458.874-.779 1.482-.976.612-.193 1.349-.291 2.214-.291Zm0 1.7c-.655 0-1.169.132-1.542.394-.372.261-.638.698-.792 1.319-.158.616-.231 1.468-.231 2.556s.077 1.94.231 2.557c.154.617.42 1.058.792 1.315.373.261.887.394 1.542.394.668 0 1.186-.133 1.559-.394.372-.262.634-.698.792-1.315.154-.617.231-1.469.231-2.557 0-1.088-.077-1.94-.231-2.556-.154-.617-.42-1.058-.792-1.319-.373-.266-.891-.394-1.559-.394Zm16.865 8.479v1.533h-11.228v-1.533h11.228Zm-9.567 1.417-.184 2.63h-1.481v-2.63h1.665Zm8.098-11.383v11.499h-2.081v-9.961h-1.884c-.368 0-.634.081-.801.248-.167.167-.261.437-.283.814a39.645 39.645 0 0 1-.209 2.214c-.086.676-.184 1.31-.309 1.901a15.628 15.628 0 0 1-.449 1.683 13.68 13.68 0 0 1-.634 1.559c-.244.505-.54 1.019-.882 1.542h-1.816c.544-.942.972-1.923 1.285-2.942.308-1.015.548-2.052.706-3.109.159-1.058.279-2.116.36-3.182.034-.698.27-1.251.707-1.658.441-.406 1.023-.608 1.76-.608h4.53Zm1.469 11.383v2.63h-1.481l-.167-2.63h1.648Zm7.464-11.383v3.4c0 .355-.025.707-.077 1.058a7.228 7.228 0 0 1-.222 1.023c.077.321.145.651.205.99.06.338.09.663.09.976v4.047h-2.081v-11.494h2.085Zm1.563 4.749v1.516h-2.132v-1.516h2.132Zm4.733-4.749c-.232.711-.446 1.349-.634 1.905a15.147 15.147 0 0 1-.574 1.474 5.394 5.394 0 0 1-.625 1.066 2.588 2.588 0 0 1-.784.685 3.02 3.02 0 0 1-1.083.334v.064c.445.056.826.167 1.147.334.321.167.604.407.84.716.235.308.462.693.668 1.147.205.459.415.994.625 1.615.21.621.454 1.34.732 2.15h-2.197c-.299-.934-.565-1.731-.792-2.39-.227-.66-.462-1.199-.698-1.615-.24-.415-.518-.723-.835-.925-.317-.201-.72-.299-1.208-.299l-.017-1.516c.467 0 .857-.107 1.174-.317.316-.21.591-.518.826-.925.231-.407.45-.904.651-1.49.201-.591.424-1.26.668-2.018h2.116v.005Zm6.193-.213c.887 0 1.641.098 2.249.291.612.192 1.1.518 1.464.976.364.454.634 1.066.81 1.833.175.767.257 1.722.257 2.865 0 1.135-.086 2.085-.257 2.856-.172.771-.441 1.384-.81 1.842-.368.454-.856.779-1.464.976-.613.193-1.362.291-2.249.291-.865 0-1.606-.098-2.214-.291-.612-.197-1.104-.518-1.481-.976-.377-.458-.651-1.071-.818-1.842-.167-.771-.249-1.725-.249-2.856 0-1.143.086-2.098.249-2.865.167-.767.441-1.375.818-1.833.377-.458.873-.779 1.481-.976.608-.193 1.349-.291 2.214-.291Zm0 1.7c-.655 0-1.169.132-1.541.394-.373.261-.638.698-.793 1.319-.158.616-.231 1.468-.231 2.556s.077 1.94.231 2.557c.155.617.42 1.058.793 1.315.372.261.886.394 1.541.394.668 0 1.187-.133 1.559-.394.373-.262.634-.698.792-1.315.155-.617.232-1.469.232-2.557 0-1.088-.077-1.94-.232-2.556-.154-.617-.419-1.058-.792-1.319-.372-.262-.891-.394-1.559-.394Zm18.345-1.487c.523 0 .788.266.801.801l.45 10.698h-1.983l-.385-9.846h-.334l-2.15 7.713c-.09.454-.373.685-.852.685h-1.465c-.475 0-.767-.227-.865-.685l-2.167-7.713h-.3l-.368 9.846h-1.983l.433-10.698c.021-.535.287-.801.801-.801h2.081c.445 0 .719.227.831.686l1.764 6.299c.077.266.141.531.193.801.051.265.111.531.175.801h.249c.064-.266.128-.531.184-.801.055-.27.115-.54.184-.818l1.769-6.282c.098-.454.381-.686.848-.686h2.089Zm5.736 0v11.499h-2.099v-11.499h2.099Zm4.783 0v1.533h-4.916v-1.533h4.916Zm1.897 0v11.499h-2.081v-11.499h2.081Zm10.881 0v1.533h-3.683c-.698 0-1.08.352-1.131 1.05-.068.843-.133 1.593-.193 2.248-.06.655-.132 1.242-.218 1.76s-.176.985-.274 1.396a6.29 6.29 0 0 1-.403 1.174c-.222.578-.496 1.049-.822 1.417-.33.368-.706.63-1.143.784-.433.154-.917.21-1.448.167l-.167-1.615c.369-.085.685-.227.959-.407.275-.184.502-.488.694-.907.112-.253.21-.523.291-.801.086-.279.159-.587.227-.925.065-.339.129-.724.185-1.157a43 43 0 0 0 .158-1.481c.051-.557.103-1.187.158-1.902.133-1.554.968-2.334 2.501-2.334h4.309Zm.248 0v11.499h-2.098v-11.499h2.098Zm4.697 0v11.499h-2.099v-11.499h2.099Zm4.783 4.553v1.631h-4.916v-1.631h4.916Zm1.897-4.553v11.499h-2.081v-11.499h2.081Zm4.867-.031h1.773c.604 0 1.199.013 1.786.034.582.022 1.139.056 1.674.103l-.102 1.55h-4.497c-.313 0-.539.077-.685.232-.146.154-.218.402-.218.732v6.265c0 .334.072.578.218.732.146.155.372.232.685.232h4.497l.102 1.55c-.535.043-1.092.073-1.674.09-.582.017-1.178.03-1.786.034-.604.004-1.195.009-1.773.009-.711 0-1.28-.197-1.708-.591-.429-.394-.643-.925-.643-1.593v-7.199c0-.668.214-1.195.643-1.589.428-.394.997-.591 1.708-.591Zm-2.068 4.749h6.565v1.533h-6.565v-1.533Zm11.42-4.718v3.4a7.342 7.342 0 0 1-.3 2.081c.077.321.145.651.205.99.06.338.095.663.095.976v4.047h-2.082v-11.494h2.082Zm1.563 4.749v1.516h-2.133v-1.516h2.133Zm4.732-4.749c-.231.711-.446 1.349-.634 1.905a14.895 14.895 0 0 1-.574 1.474 5.544 5.544 0 0 1-.625 1.066 2.588 2.588 0 0 1-.784.685 3.02 3.02 0 0 1-1.083.334v.064c.445.056.826.167 1.147.334.322.167.604.407.844.716.24.312.458.693.668 1.147.206.459.416.994.625 1.615.21.621.454 1.34.733 2.15h-2.197c-.3-.934-.565-1.731-.792-2.39a9.84 9.84 0 0 0-.698-1.615c-.24-.415-.519-.723-.836-.925-.316-.201-.719-.299-1.207-.299l-.017-1.516c.466 0 .86-.107 1.173-.317.317-.21.591-.518.827-.925.231-.407.449-.904.646-1.49.202-.591.424-1.26.668-2.018h2.116v.005Zm6.145-.199c.522 0 .967.013 1.331.043a9.995 9.995 0 0 1 1.983.325l-.18 1.551c-.347-.022-.668-.043-.967-.06a32.669 32.669 0 0 0-2.163-.06c-.642 0-1.148.128-1.516.381-.364.257-.625.685-.775 1.285-.15.599-.227 1.426-.227 2.483 0 1.058.073 1.885.227 2.484.15.6.407 1.028.775 1.285.368.257.874.381 1.516.381.745 0 1.37-.013 1.876-.043a23.073 23.073 0 0 0 1.49-.124l.184 1.533a9.202 9.202 0 0 1-1.55.334c-.531.069-1.199.103-2 .103-1.156 0-2.077-.193-2.767-.574-.689-.381-1.186-1.006-1.49-1.871-.304-.865-.458-2.034-.458-3.499 0-1.465.154-2.634.458-3.499.304-.865.801-1.494 1.49-1.875.686-.394 1.606-.583 2.763-.583Zm7.46.199v11.499h-2.099v-11.499h2.099Zm4.779 4.553v1.631h-4.916v-1.631h4.916Zm1.901-4.553v11.499h-2.081v-11.499h2.081Zm6.97-.213c.886 0 1.64.098 2.248.291.612.192 1.1.518 1.464.976.369.454.634 1.066.81 1.833.171.767.261 1.722.261 2.865 0 1.135-.086 2.085-.261 2.856-.171.771-.441 1.384-.81 1.842-.364.454-.856.779-1.464.976-.613.193-1.362.291-2.248.291-.865 0-1.606-.098-2.214-.291-.613-.197-1.105-.518-1.486-.976-.377-.458-.647-1.071-.814-1.842-.167-.771-.248-1.725-.248-2.856 0-1.143.081-2.098.248-2.865.167-.767.437-1.375.814-1.833.376-.458.873-.779 1.486-.976.608-.193 1.349-.291 2.214-.291Zm0 1.7c-.656 0-1.17.132-1.542.394-.373.261-.634.698-.792 1.319-.155.616-.232 1.468-.232 2.556s.077 1.94.232 2.557c.154.617.419 1.058.792 1.315.372.261.886.394 1.542.394.663 0 1.186-.133 1.558-.394.373-.262.634-.698.793-1.315.154-.617.231-1.469.231-2.557 0-1.088-.077-1.94-.231-2.556-.155-.617-.42-1.058-.793-1.319-.372-.266-.895-.394-1.558-.394Zm9.198-1.518c.844 0 1.7.009 2.565.017a28.36 28.36 0 0 1 2.433.133l-.086 1.533h-4.098c-.334 0-.583.081-.75.249-.167.167-.248.423-.248.766v8.83h-2.081v-9.228c0-.69.214-1.246.642-1.666.424-.424.968-.634 1.623-.634Zm10.712-.182c.886 0 1.64.098 2.248.291.612.192 1.101.518 1.465.976.368.454.633 1.066.809 1.833.171.767.261 1.722.261 2.865 0 1.135-.085 2.085-.261 2.856-.171.771-.441 1.384-.809 1.842-.364.454-.857.779-1.465.976-.612.193-1.362.291-2.248.291-.865 0-1.606-.098-2.214-.291-.613-.197-1.105-.518-1.486-.976-.377-.458-.647-1.071-.814-1.842-.167-.771-.248-1.725-.248-2.856 0-1.143.081-2.098.248-2.865.167-.767.437-1.375.814-1.833.377-.458.873-.779 1.486-.976.612-.193 1.349-.291 2.214-.291Zm0 1.7c-.655 0-1.169.132-1.542.394-.373.261-.634.698-.792 1.319-.154.616-.231 1.468-.231 2.556s.077 1.94.231 2.557c.154.617.419 1.058.792 1.315.373.261.887.394 1.542.394.664 0 1.186-.133 1.559-.394.372-.262.633-.698.792-1.315.154-.617.231-1.469.231-2.557 0-1.088-.077-1.94-.231-2.556-.154-.617-.42-1.058-.792-1.319-.373-.266-.891-.394-1.559-.394Zm12.711-1.487v11.499h-2.098v-11.499h2.098Zm4.779 0v1.533h-4.916v-1.533h4.916Zm1.902 0v11.499h-2.082v-11.499h2.082Zm6.829-.143c.997 0 1.79.107 2.372.325.583.219.998.591 1.242 1.118.244.527.368 1.276.368 2.24 0 .968-.12 1.717-.359 2.248-.24.531-.63.904-1.174 1.118-.544.21-1.276.317-2.201.317-.501 0-.981-.017-1.443-.052a19.386 19.386 0 0 1-1.281-.133 11.727 11.727 0 0 1-1.006-.175 4.05 4.05 0 0 1-.582-.159l.051-1.117h3.966c.488-.009.873-.073 1.156-.18.282-.111.484-.313.599-.608.116-.296.176-.715.176-1.259 0-.544-.06-.964-.176-1.259a1.051 1.051 0 0 0-.599-.617c-.283-.116-.668-.176-1.156-.176-.977 0-1.816.009-2.514.018-.698.012-1.178.03-1.435.051l-.231-1.55a31.36 31.36 0 0 1 1.259-.099c.394-.021.822-.038 1.28-.043.459-.008 1.02-.008 1.688-.008Zm-2.15.145v11.499H296.6v-11.499h2.081Zm12.384-.215c.886 0 1.64.098 2.248.291.612.192 1.101.518 1.465.976.368.454.633 1.066.809 1.833.176.767.261 1.722.261 2.865 0 1.135-.085 2.085-.261 2.856-.171.771-.441 1.384-.809 1.842-.364.454-.857.779-1.465.976-.612.193-1.362.291-2.248.291-.865 0-1.606-.098-2.214-.291-.613-.197-1.105-.518-1.486-.976-.377-.458-.647-1.071-.814-1.842-.167-.771-.248-1.725-.248-2.856 0-1.143.081-2.098.248-2.865.167-.767.437-1.375.814-1.833.377-.458.873-.779 1.486-.976.608-.193 1.344-.291 2.214-.291Zm0 1.7c-.655 0-1.169.132-1.542.394-.372.261-.634.698-.792 1.319-.154.616-.231 1.468-.231 2.556s.077 1.94.231 2.557c.154.617.42 1.058.792 1.315.373.261.887.394 1.542.394.664 0 1.186-.133 1.559-.394.372-.262.633-.698.792-1.315.154-.617.231-1.469.231-2.557 0-1.088-.077-1.94-.231-2.556-.154-.617-.42-1.058-.792-1.319-.377-.266-.895-.394-1.559-.394Zm16.076-1.487v11.499h-2v-7.482c0-.244.008-.488.034-.732a20.5 20.5 0 0 1 .081-.715h-.098a6.225 6.225 0 0 1-.283.706c-.111.24-.222.471-.334.694l-4.449 7.529h-2.069v-11.499h2v7.383c0 .244-.008.497-.034.75l-.064.749h.064a19.53 19.53 0 0 1 .681-1.4l4.398-7.482h2.073Zm5.541-.13c.955 0 1.717.086 2.282.257.57.172.977.476 1.225.908.248.433.377 1.045.377 1.833 0 .822-.15 1.448-.45 1.884-.3.437-.801.686-1.499.75v.064c.865.077 1.465.377 1.799.899.334.523.501 1.247.501 2.167 0 .788-.129 1.401-.381 1.833-.257.433-.655.737-1.199.908-.544.171-1.259.261-2.15.261-.578 0-1.109-.012-1.602-.042a12.726 12.726 0 0 1-2.616-.407l.167-1.435c.544.064 1.126.129 1.747.18.621.056 1.268.086 1.931.086.501 0 .891-.047 1.174-.142a.992.992 0 0 0 .608-.522c.124-.257.184-.621.184-1.101 0-.509-.064-.908-.193-1.19a1.12 1.12 0 0 0-.642-.6c-.3-.115-.711-.175-1.233-.175h-2.099v-1.482h2.099c.454-.009.809-.064 1.066-.159a.937.937 0 0 0 .552-.501c.112-.239.167-.573.167-1.006 0-.445-.06-.788-.175-1.032-.116-.244-.321-.411-.608-.501-.287-.09-.677-.133-1.165-.133-.634 0-1.203.022-1.717.069-.514.047-.998.085-1.465.132l-.15-1.498a18.26 18.26 0 0 1 1.597-.227 18.345 18.345 0 0 1 1.868-.078Zm10.467 0c.989 0 1.768.086 2.346.257.579.172.994.476 1.251.908.257.433.381 1.045.381 1.833 0 .822-.154 1.448-.467 1.884-.312.437-.822.686-1.533.75v.064c.878.077 1.491.377 1.842.899.351.523.526 1.247.526 2.167 0 .788-.132 1.401-.394 1.833-.261.433-.672.737-1.233.908-.561.171-1.289.261-2.193.261-.698 0-1.31-.004-1.824-.008a47.894 47.894 0 0 1-1.434-.043c-.437-.021-.891-.051-1.358-.081l.248-1.516c.253.008.746.021 1.474.034.728.013 1.571.017 2.539.017.535 0 .951-.047 1.25-.141.3-.095.51-.27.634-.531.124-.262.184-.63.184-1.105 0-.535-.064-.942-.192-1.225a1.118 1.118 0 0 0-.66-.6c-.312-.115-.741-.175-1.297-.175h-3.949v-1.418h3.932c.475 0 .852-.047 1.126-.141.27-.094.467-.265.591-.51.124-.244.184-.595.184-1.049 0-.454-.064-.805-.193-1.049-.128-.244-.342-.407-.642-.492-.3-.082-.715-.125-1.251-.125h-1.567c-.458 0-.861.005-1.216.009-.356.009-.673.021-.951.043l-.248-1.516c.424-.043.826-.073 1.216-.09s.809-.03 1.268-.034c.462-.017.997-.018 1.61-.018Zm-2.052.129v11.498h-2.029v-11.498h2.029Zm12.86-.212c.887 0 1.641.098 2.249.291.612.192 1.1.518 1.464.976.364.454.634 1.066.81 1.833.171.767.257 1.722.257 2.865 0 1.135-.086 2.085-.257 2.856-.172.771-.441 1.384-.81 1.842-.368.454-.856.779-1.464.976-.613.193-1.362.291-2.249.291-.865 0-1.606-.098-2.214-.291-.612-.197-1.104-.518-1.481-.976-.377-.458-.651-1.071-.818-1.842-.167-.771-.249-1.725-.249-2.856 0-1.143.086-2.098.249-2.865.167-.767.441-1.375.818-1.833.377-.458.873-.779 1.481-.976.608-.193 1.349-.291 2.214-.291Zm0 1.7c-.655 0-1.169.132-1.541.394-.373.261-.638.698-.793 1.319-.158.616-.231 1.468-.231 2.556s.077 1.94.231 2.557c.155.617.42 1.058.793 1.315.372.261.886.394 1.541.394.668 0 1.187-.133 1.559-.394.373-.262.634-.698.792-1.315.155-.617.232-1.469.232-2.557 0-1.088-.077-1.94-.232-2.556-.154-.617-.419-1.058-.792-1.319-.372-.266-.891-.394-1.559-.394Zm16.865 8.479v1.533h-11.228v-1.533h11.228Zm-9.562 1.417-.18 2.63h-1.482v-2.63h1.662Zm8.098-11.383v11.499h-2.082v-9.961h-1.88c-.368 0-.633.081-.8.248-.167.167-.262.437-.283.814a39.597 39.597 0 0 1-.21 2.214 22.05 22.05 0 0 1-.308 1.901 15.397 15.397 0 0 1-.45 1.683c-.175.531-.39 1.054-.634 1.559a13.666 13.666 0 0 1-.882 1.542h-1.816c.544-.942.973-1.923 1.285-2.942.308-1.015.548-2.052.707-3.109a42 42 0 0 0 .355-3.182c.034-.698.27-1.251.707-1.658.437-.406 1.023-.608 1.756-.608h4.535Zm1.464 11.383v2.63h-1.481l-.167-2.63h1.648Zm5.948-11.582c.523 0 .968.013 1.332.043a9.995 9.995 0 0 1 1.983.325l-.184 1.551c-.343-.022-.668-.043-.968-.06a32.669 32.669 0 0 0-2.167-.06c-.642 0-1.152.128-1.516.381-.368.257-.625.685-.775 1.285-.15.599-.223 1.426-.223 2.483 0 1.058.073 1.885.223 2.484.15.6.407 1.028.775 1.285.364.257.874.381 1.516.381.745 0 1.37-.013 1.876-.043a23.073 23.073 0 0 0 1.49-.124l.184 1.533a9.202 9.202 0 0 1-1.55.334c-.531.069-1.199.103-2 .103-1.156 0-2.077-.193-2.766-.574-.69-.381-1.187-1.006-1.495-1.871-.304-.865-.458-2.034-.458-3.499 0-1.465.154-2.634.458-3.499.304-.865.801-1.494 1.495-1.875.698-.394 1.618-.583 2.77-.583Zm13.613.199v1.7h-9.211v-1.7h9.211Zm-3.563 0v11.499h-2.081v-11.499h2.081Zm9.277-.13c.989 0 1.773.086 2.351.257.578.172.994.476 1.251.908.257.433.385 1.045.385 1.833 0 .822-.154 1.448-.467 1.884-.312.437-.822.686-1.533.75v.064c.878.077 1.495.377 1.842.899.351.523.522 1.247.522 2.167 0 .788-.133 1.401-.39 1.833-.261.433-.672.737-1.233.908-.561.171-1.289.261-2.193.261-.698 0-1.306-.004-1.824-.008a47.894 47.894 0 0 1-1.434-.043c-.437-.021-.891-.051-1.358-.081l.248-1.516a118.486 118.486 0 0 0 4.013.051c.531 0 .951-.047 1.251-.141.299-.095.509-.27.633-.531.12-.262.18-.63.18-1.105 0-.535-.064-.942-.188-1.225a1.118 1.118 0 0 0-.66-.6c-.312-.115-.745-.175-1.297-.175h-3.949v-1.418h3.932c.479 0 .852-.047 1.126-.141a.985.985 0 0 0 .591-.51c.12-.244.18-.595.18-1.049 0-.454-.065-.805-.189-1.049-.128-.244-.342-.407-.642-.492-.3-.086-.715-.125-1.251-.125h-1.567c-.454 0-.861.005-1.216.009-.356.009-.673.021-.951.043l-.248-1.516c.424-.043.826-.073 1.216-.09s.809-.03 1.268-.034a45.51 45.51 0 0 1 1.601-.018Zm-2.047.129v11.498h-2.034v-11.498h2.034Zm13.563.001a.775.775 0 0 1 .749.549l3.482 10.945h-2.133l-2.633-8.864c-.043-.176-.086-.356-.133-.531-.043-.176-.086-.351-.116-.518h-.467c-.034.167-.072.338-.115.518a8.294 8.294 0 0 1-.15.531l-2.617 8.864h-2.132l3.481-10.945a.692.692 0 0 1 .274-.399c.137-.103.3-.15.476-.15h2.034Zm1.931 6.582v1.632h-5.914v-1.632h5.914Zm18.711-6.582c.522 0 .788.266.801.801l.449 10.698h-1.983l-.381-9.846h-.334l-2.15 7.713c-.085.454-.372.685-.847.685h-1.465c-.48 0-.767-.227-.865-.685l-2.167-7.713h-.3l-.368 9.846h-1.983l.433-10.698c.021-.535.291-.801.8-.801h2.082c.445 0 .719.227.831.686l1.768 6.299c.077.266.141.531.193.801.051.265.107.531.175.801h.249c.068-.266.128-.531.184-.801.056-.27.116-.54.184-.818l1.764-6.282c.103-.454.386-.686.853-.686h2.077Zm5.877-.031h1.778c.608 0 1.199.013 1.781.034.582.022 1.139.056 1.674.103l-.098 1.55h-4.497c-.312 0-.539.077-.685.232-.145.154-.218.402-.218.732v6.265c0 .334.073.578.218.732.146.155.373.232.685.232h4.497l.098 1.55c-.531.043-1.087.073-1.674.09-.582.017-1.178.03-1.781.034-.604.004-1.2.009-1.778.009-.711 0-1.28-.197-1.708-.591-.429-.394-.643-.925-.643-1.593v-7.199c0-.668.214-1.195.643-1.589.428-.394.997-.591 1.708-.591Zm-2.064 4.749h6.565v1.533h-6.565v-1.533Zm17.578-4.718v1.7h-9.216v-1.7h9.216Zm-3.563 0v11.499h-2.082v-11.499h2.082Zm10.241 0c.18 0 .334.052.467.15a.794.794 0 0 1 .282.399l3.482 10.945h-2.133l-2.633-8.864c-.043-.176-.09-.356-.133-.531-.043-.176-.086-.351-.116-.518h-.467a9.002 9.002 0 0 1-.265 1.049l-2.617 8.864h-2.132l3.481-10.945a.692.692 0 0 1 .274-.399.768.768 0 0 1 .476-.15h2.034Zm1.931 6.582v1.632h-5.914v-1.632h5.914Zm11.963-6.582v1.533h-3.683c-.698 0-1.079.352-1.131 1.05-.064.843-.133 1.593-.193 2.248a23.958 23.958 0 0 1-.218 1.76c-.081.518-.175.985-.274 1.396a5.949 5.949 0 0 1-.403 1.174c-.222.578-.496 1.049-.822 1.417a2.74 2.74 0 0 1-1.143.784c-.433.154-.917.21-1.448.167l-.167-1.615a2.93 2.93 0 0 0 .96-.407c.274-.184.501-.488.693-.907a6.6 6.6 0 0 0 .292-.801c.085-.279.158-.587.227-.925.068-.339.128-.724.184-1.157a34.9 34.9 0 0 0 .158-1.481c.052-.557.103-1.187.159-1.902.132-1.554.967-2.334 2.501-2.334h4.308Zm.248 0v11.499h-2.098v-11.499h2.098Zm10.886 0v1.533h-3.682c-.698 0-1.08.352-1.131 1.05-.064.843-.133 1.593-.193 2.248-.06.655-.132 1.242-.218 1.76-.081.518-.176.985-.274 1.396a6.014 6.014 0 0 1-.403 1.174c-.222.578-.497 1.049-.822 1.417-.33.368-.707.63-1.143.784-.433.154-.917.21-1.448.167l-.167-1.615c.368-.085.685-.227.959-.407.274-.184.501-.488.69-.907.111-.253.21-.523.291-.801.086-.279.159-.587.227-.925.069-.339.128-.724.184-1.157.056-.432.111-.925.159-1.481.051-.557.102-1.187.158-1.902.133-1.554.968-2.334 2.501-2.334h4.312Zm.249 0v11.499h-2.099v-11.499h2.099Zm6.944-.213c.886 0 1.64.098 2.248.291.613.192 1.101.518 1.465.976.364.454.634 1.066.809 1.833.176.767.257 1.722.257 2.865 0 1.135-.086 2.085-.257 2.856-.171.771-.441 1.384-.809 1.842-.368.454-.857.779-1.465.976-.612.193-1.362.291-2.248.291-.865 0-1.606-.098-2.214-.291-.612-.197-1.105-.518-1.482-.976-.377-.458-.651-1.071-.813-1.842-.167-.771-.249-1.725-.249-2.856 0-1.143.082-2.098.249-2.865.167-.767.436-1.375.813-1.833.377-.458.874-.779 1.482-.976.612-.193 1.349-.291 2.214-.291Zm0 1.7c-.655 0-1.169.132-1.542.394-.372.261-.634.698-.792 1.319-.154.616-.231 1.468-.231 2.556s.077 1.94.231 2.557c.154.617.42 1.058.792 1.315.373.261.887.394 1.542.394.668 0 1.186-.133 1.559-.394.372-.262.634-.698.792-1.315.154-.617.231-1.469.231-2.557 0-1.088-.077-1.94-.231-2.556-.154-.617-.42-1.058-.792-1.319-.373-.266-.891-.394-1.559-.394Zm16.082-1.487v11.499h-2v-7.482c0-.244.013-.488.034-.732.022-.244.052-.484.082-.715h-.099a6.406 6.406 0 0 1-.282.706c-.112.24-.223.471-.334.694l-4.45 7.529h-2.068v-11.499h2v7.383c0 .244-.013.497-.035.75-.021.257-.042.505-.068.749h.068a19.53 19.53 0 0 1 .681-1.4l4.398-7.482h2.073Zm5.543-.13c.955 0 1.717.086 2.282.257.566.172.977.476 1.225.908.249.433.377 1.045.377 1.833 0 .822-.15 1.448-.45 1.884-.299.437-.8.686-1.498.75v.064c.865.077 1.464.377 1.798.899.334.523.501 1.247.501 2.167 0 .788-.128 1.401-.381 1.833-.257.433-.655.737-1.199.908-.544.171-1.259.261-2.15.261a26.39 26.39 0 0 1-1.601-.042 12.566 12.566 0 0 1-2.617-.407l.167-1.435c.544.064 1.126.129 1.747.18.621.056 1.268.086 1.932.086.501 0 .89-.047 1.173-.142a.989.989 0 0 0 .608-.522c.12-.257.184-.621.184-1.101 0-.509-.064-.908-.188-1.19a1.126 1.126 0 0 0-.642-.6c-.3-.115-.711-.175-1.234-.175h-2.098v-1.482h2.098c.454-.009.81-.064 1.066-.159a.934.934 0 0 0 .549-.501c.111-.239.167-.573.167-1.006 0-.445-.06-.788-.176-1.032-.116-.244-.321-.411-.608-.501-.291-.09-.677-.133-1.165-.133-.634 0-1.203.022-1.717.069-.51.042-.998.085-1.465.132l-.15-1.498a18.156 18.156 0 0 1 1.602-.227 18.176 18.176 0 0 1 1.863-.078Zm16.627 10.096v1.533h-11.229v-1.533h11.229Zm-9.563 1.417-.184 2.63h-1.482v-2.63h1.666Zm8.098-11.383v11.499h-2.081v-9.961h-1.884c-.364 0-.634.081-.801.248-.167.167-.261.437-.283.814a38.671 38.671 0 0 1-.21 2.214 22.05 22.05 0 0 1-.308 1.901 15.397 15.397 0 0 1-.45 1.683 13.494 13.494 0 0 1-.633 1.559c-.244.505-.54 1.019-.883 1.542h-1.815a13.93 13.93 0 0 0 1.28-2.942c.313-1.015.548-2.052.707-3.109a40.06 40.06 0 0 0 .36-3.182c.034-.698.269-1.251.706-1.658.437-.406 1.024-.608 1.756-.608h4.539Zm1.465 11.383v2.63h-1.482l-.167-2.63h1.649Zm3.982-11.414h1.773c.604 0 1.199.013 1.786.034.582.022 1.139.056 1.674.103l-.099 1.55h-4.5c-.313 0-.54.077-.681.232-.146.154-.219.402-.219.732v6.265c0 .334.073.578.219.732.145.155.372.232.681.232h4.5l.099 1.55a32.63 32.63 0 0 1-1.674.09c-.583.017-1.178.03-1.786.034-.608.004-1.195.009-1.773.009-.711 0-1.281-.197-1.709-.591-.428-.394-.642-.925-.642-1.593v-7.199c0-.668.214-1.195.642-1.589.428-.394.998-.591 1.709-.591Zm-2.064 4.749h6.565v1.533h-6.565v-1.533Zm17.612-4.718v1.533h-3.683c-.698 0-1.079.352-1.13 1.05-.065.843-.133 1.593-.193 2.248-.06.655-.133 1.242-.219 1.76-.081.518-.175.985-.274 1.396a6.012 6.012 0 0 1-.402 1.174c-.223.578-.497 1.049-.822 1.417-.33.368-.707.63-1.144.784a3.45 3.45 0 0 1-1.447.167l-.167-1.615c.368-.085.685-.227.959-.407.274-.184.501-.488.689-.907a6.6 6.6 0 0 0 .292-.801c.085-.279.158-.587.227-.925.068-.339.128-.724.184-1.157a34.9 34.9 0 0 0 .158-1.481c.052-.557.103-1.187.159-1.902.132-1.554.968-2.334 2.501-2.334h4.312Zm.248 0v11.499h-2.098v-11.499h2.098Zm11.716 0v11.499h-2v-7.482c0-.244.013-.488.034-.732.022-.244.052-.484.082-.715h-.099a6.406 6.406 0 0 1-.282.706c-.112.24-.223.471-.334.694l-4.45 7.529h-2.068v-11.499h2v7.383c0 .244-.013.497-.035.75-.021.257-.042.505-.068.749h.068c.099-.231.206-.467.326-.706.116-.24.235-.467.355-.694l4.398-7.482h2.073Zm11.713 0v11.498h-2v-7.481c0-.245.013-.489.034-.733.022-.244.052-.484.082-.715h-.099a6.5 6.5 0 0 1-.282.707c-.112.24-.223.471-.334.693l-4.45 7.529h-2.068v-11.498h2v7.383c0 .244-.013.496-.035.749-.021.257-.042.505-.068.749h.068a19.53 19.53 0 0 1 .681-1.4l4.398-7.481h2.073Zm-3.216-3.349h1.383c.056.458-.017.869-.218 1.242a2.245 2.245 0 0 1-.917.899c-.411.227-.903.343-1.481.343-.579 0-1.071-.116-1.482-.343a2.285 2.285 0 0 1-.925-.899 2.07 2.07 0 0 1-.24-1.242h1.383c-.021.488.077.852.3 1.092.223.24.544.355.968.355.411 0 .724-.12.942-.355.214-.236.308-.6.287-1.092ZM186.477 95.178V76.896c0-13.215-8.693-19.84-26.093-19.84H87.596v29.056h64.673v14.522H99.946v23.909h85.666c-1.439-5.238-4.813-8.981-10.063-11.25 7.288-2.694 10.928-8.745 10.928-18.115Zm-98.881 74.318v.034h.813c-.235-.017-.51-.034-.813-.034Z" fill="#2A2A2A"/><path d="M186.479 139.065v10.792c0 13.112-8.792 19.673-26.397 19.673h-71.67c-.237-.017-.51-.034-.815-.034-2.286-.069-6.32-.034-8.115-.034-.475 0-.796 0-.882-.017l-.71-.069-5.285 6.556c-2.9 3.628-5.37 6.625-5.508 6.677-.304.12-4.608-1.204-7.828-2.407a94.687 94.687 0 0 1-18.569-9.404c-1.456-.951-1.73-1.186-1.661-1.473.39-1.593 3.22-16.162 3.22-16.556-.017-.12-.71-.797-1.541-1.508-3.778-3.353-8.047-7.995-11.336-12.367l-1.593-2.12-3.272.355c-14.792 1.61-13.794 1.525-14.03 1.221-.12-.172-1.168-2.167-2.32-4.475-2.998-5.966-5.032-11.268-6.608-17.284-.544-2.12-1.559-6.66-1.559-6.981 0-.085 3.238-2.304 7.203-4.929l7.186-4.796-.137-1.662c-.069-.933-.103-3.593-.103-5.931.017-4.407.253-7.439.865-11.725.189-1.29.287-2.321.202-2.407-.086-.069-3.084-2.475-6.643-5.353-3.593-2.882-6.522-5.336-6.522-5.473 0-.338.814-3.05 1.56-5.268 2.405-7.066 5.946-14.35 10.01-20.55 1.204-1.847 1.474-2.185 1.748-2.104 1.507.339 16.35 3.22 16.569 3.22.12-.033 1.049-1.014 2.102-2.183 3.37-3.777 7.203-7.25 11.503-10.505l2.372-1.777-.137-1.084c-.051-.578-.44-4.085-.83-7.777-.39-3.695-.763-7.066-.797-7.49l-.103-.813 1.679-.917c7.982-4.372 15.858-7.284 24.94-9.25 1.136-.253 2.168-.458 2.305-.458.188 0 1.965 2.54 5.032 7.186L84.8 14.75l1.422-.137c.796-.052 3.456-.103 5.948-.103 4.66.017 7.507.218 11.961.882 1.983.287 2.304.304 2.458.103 1.37-1.811 10.453-12.963 10.625-13.032.355-.137 3.541.831 6.997 2.086.865.321 1.748.642 2.591.98 3.508 1.388 8.676 3.863 11.91 5.71 1.73.997 6.034 3.695 6.573 4.132l-5.845 21.28-2.493 9.048H93.053c-1.032-.034-1.811-.017-3.1.069-17.348.933-32.397 10.894-39.921 26.414a46.68 46.68 0 0 0-4.184 27.09 46.863 46.863 0 0 0 21.605 32.988c6.2 3.863 13.096 6.115 20.127 6.796h.035c.05 0 .102.017.154.017h64.502v-.017h34.208v.009Zm80.854 30.465h34.683v-30.466h-34.683v30.466Zm0-44.987h33.972c-2.848-15.623-14.213-23.434-34.122-23.434l34.837-44.053h-34.683l-35.125 44.053h-4.085V57.056h-34.684v67.487h73.89Zm-73.89 44.987h34.684v-30.466h-34.684v30.466Zm189.091 0h35.291v-30.466h-35.291v30.466ZM309.27 57.056v67.487h35.291V86.116h37.973v38.427h35.291V57.056H309.27Zm0 112.474h35.291v-30.466H309.27v30.466ZM509.221 57.056l-11.404 44.987c-1.576 6.149-2.355 11.472-2.355 15.943h-.305c0-4.475-.779-9.794-2.338-15.943l-11.404-44.987h-57.642v67.487h35.309c.171-13.267.321-24.637.321-25.956l7.76 25.956h56.828l8.081-25.956c0 1.627.017 12.877.017 25.956h34.769V57.056h-57.637Zm22.907 82.008c.034 15.927.051 30.466.051 30.466h34.684v-30.466h-34.735Zm-51.509 30.466H510l9.49-30.466h-47.984l9.113 30.466Zm-56.846 0h34.667s.201-14.522.441-30.466h-35.108v30.466Z" fill="#2A2A2A"/></svg>