<svg width="112" height="46" fill="none" xmlns="http://www.w3.org/2000/svg"><path d="M58.758 16.144c-.92-.772-2.502-1.158-4.745-1.158h-5.04v15.578h3.77V25.67h1.693c2.041 0 3.55-.46 4.506-1.36 1.085-1.012 1.618-2.355 1.618-4.047 0-1.729-.607-3.108-1.802-4.12Zm-4.433 5.996h-1.6v-3.642h1.435c1.747 0 2.611.607 2.611 1.84.019 1.195-.809 1.802-2.446 1.802Zm12.672-7.173H63.08v15.578h8.479v-3.531h-4.561V14.967Zm12.268 0-6.18 15.578h4.23l.81-2.262h5.37l.736 2.262h4.285l-6.124-15.578h-3.127Zm-.055 10.171 1.619-5.334 1.6 5.334H79.21Zm11.275 5.408h3.936V14.967h-3.936v15.579Zm19.183-12.654a6.752 6.752 0 0 0-1.876-1.803c-1.196-.754-2.814-1.121-4.856-1.121H97.75v15.578h6.051c2.188 0 3.954-.718 5.278-2.152 1.324-1.435 1.987-3.33 1.987-5.702.018-1.876-.46-3.476-1.398-4.8Zm-6.29 9.122h-1.674V18.5h1.71c1.196 0 2.134.368 2.778 1.122.643.754.974 1.82.974 3.2-.018 2.796-1.269 4.193-3.788 4.193ZM17.044 1.891 4.3 5.22.786 18.039 5.2 22.545.73 26.978l3.311 12.874 12.69 3.55 4.47-4.433 4.396 4.506 12.746-3.328 3.512-12.82-4.395-4.506 4.47-4.433-3.312-12.874-12.69-3.55-4.47 4.433-4.414-4.506ZM9.228 7.684 15.94 5.92l2.943 3.016-4.286 4.248-5.37-5.499ZM23.96 8.99l2.98-2.961 6.676 1.876-5.463 5.426c.019-.019-4.193-4.341-4.193-4.341Zm-19.146 8 1.857-6.75 5.37 5.5-4.285 4.249-2.942-2.998Zm25.877-1.084 5.463-5.426 1.747 6.787-2.98 2.96c-.018 0-4.23-4.322-4.23-4.322Zm-13.573-.11 4.285-4.25 4.212 4.323-4.285 4.248-4.212-4.322Zm-6.842 6.786 4.285-4.249 4.212 4.323-4.285 4.248-4.212-4.322Zm13.573.11 4.286-4.248 4.212 4.322-4.286 4.248c0 .019-4.212-4.322-4.212-4.322ZM4.74 28.1l2.98-2.962 4.211 4.323-5.444 5.425c-.018 0-1.747-6.786-1.747-6.786Zm12.268 1.397 4.285-4.248 4.212 4.322-4.286 4.249-4.211-4.323Zm13.573.11 4.286-4.248 2.942 3.016-1.839 6.75c-.018 0-5.389-5.517-5.389-5.517ZM8.99 37.462l5.444-5.425 4.212 4.322-2.98 2.96-6.676-1.857Zm14.75-1.048 4.286-4.249 5.37 5.5-6.713 1.765-2.943-3.016Z" fill="#2B2B2B"/></svg>