<svg width="154" height="46" fill="none" xmlns="http://www.w3.org/2000/svg"><g clip-path="url(#a)"><path d="m10.704 14.035-1.265 4.654 7.238-4.68-4.734 17.66 4.807.003 6.993-26.084" fill="#3395FF"/><path d="M2.915 24.248.924 31.672h9.852l4.032-15.103-11.893 7.679Zm34.224-6.536c-.24.895-.704 1.552-1.396 1.972-.69.42-1.66.63-2.91.63h-3.974l1.395-5.203h3.974c1.249 0 2.107.21 2.573.634.465.426.578 1.076.338 1.975v-.008Zm4.115-.104c.506-1.879.297-3.324-.628-4.335-.923-1.004-2.543-1.51-4.855-1.51h-8.869l-5.338 19.918h4.308l2.152-8.028h2.826c.634 0 1.133.104 1.498.305.365.209.58.57.645 1.092l.77 6.631h4.615L37.63 25.5c-.153-1.381-.784-2.192-1.895-2.433 1.416-.41 2.602-1.092 3.557-2.04a7.433 7.433 0 0 0 1.962-3.411v-.008Zm10.473 6.944c-.361 1.349-.915 2.368-1.664 3.083-.75.714-1.646 1.068-2.691 1.068-1.065 0-1.786-.346-2.168-1.044-.382-.698-.395-1.71-.04-3.035.355-1.324.921-2.36 1.7-3.106.779-.747 1.689-1.12 2.734-1.12 1.044 0 1.758.361 2.12 1.078.369.72.377 1.75.015 3.09l-.006-.014Zm1.888-7.048-.54 2.015c-.232-.723-.684-1.3-1.352-1.734-.67-.426-1.498-.643-2.486-.643-1.212 0-2.376.314-3.492.94-1.116.626-2.096 1.509-2.93 2.649-.835 1.14-1.445 2.432-1.839 3.885-.385 1.462-.465 2.738-.233 3.846.241 1.116.747 1.967 1.526 2.56.786.603 1.79.9 3.018.9a6.616 6.616 0 0 0 2.826-.618 6.593 6.593 0 0 0 2.28-1.702l-.562 2.1h4.166l3.805-14.191h-4.175l-.012-.007Zm19.159 0H60.657l-.846 3.163h7.05l-9.32 8.052-.797 2.97H69.25l.847-3.163h-7.554l9.463-8.172.767-2.85Zm10.665 7.024c-.375 1.397-.931 2.447-1.666 3.131-.734.69-1.624 1.036-2.668 1.036-2.184 0-2.901-1.39-2.157-4.167.37-1.38.929-2.419 1.675-3.118.747-.702 1.651-1.052 2.715-1.052 1.044 0 1.749.348 2.112 1.048.362.699.36 1.74-.01 3.12v.002Zm2.439-6.49c-.96-.598-2.184-.896-3.677-.896-1.511 0-2.91.297-4.198.89a9.079 9.079 0 0 0-3.292 2.575c-.907 1.115-1.56 2.424-1.96 3.917-.394 1.488-.442 2.794-.137 3.912.305 1.116.947 1.975 1.91 2.57.972.598 2.209.896 3.726.896 1.493 0 2.882-.3 4.158-.898a9.17 9.17 0 0 0 3.276-2.577c.907-1.119 1.557-2.424 1.959-3.917.401-1.494.45-2.797.144-3.918-.305-1.116-.94-1.975-1.895-2.573l-.014.019Zm14.874 3.256 1.068-3.861c-.361-.185-.835-.281-1.429-.281-.955 0-1.87.236-2.754.714-.76.407-1.404.98-1.95 1.698l.553-2.08-1.21.005h-2.97l-3.829 14.186h4.225l1.987-7.416c.289-1.078.81-1.927 1.56-2.529.746-.604 1.678-.907 2.802-.907.69 0 1.332.158 1.942.474l.005-.003Zm11.756 3.302c-.361 1.325-.907 2.337-1.653 3.035-.747.702-1.646 1.052-2.69 1.052-1.043 0-1.758-.354-2.135-1.06-.386-.71-.394-1.734-.032-3.08.361-1.344.915-2.376 1.678-3.09.762-.72 1.661-1.08 2.705-1.08 1.028 0 1.718.37 2.087 1.116.369.746.378 1.782.023 3.107h.017Zm2.937-6.535c-.783-.626-1.782-.94-2.994-.94a6.619 6.619 0 0 0-3.035.728 6.331 6.331 0 0 0-2.336 1.986l.014-.096.709-2.256h-4.126l-1.052 3.925-.032.137-4.335 16.171h4.231l2.183-8.14c.217.724.659 1.293 1.333 1.704.674.409 1.507.612 2.497.612 1.228 0 2.4-.297 3.512-.89 1.116-.597 2.079-1.454 2.898-2.562.819-1.108 1.426-2.392 1.814-3.845.394-1.456.474-2.754.249-3.89-.229-1.137-.735-2.018-1.517-2.641l-.013-.003Zm14.034 6.477c-.362 1.341-.916 2.369-1.662 3.075-.747.712-1.646 1.066-2.69 1.066-1.067 0-1.79-.346-2.167-1.044-.385-.699-.393-1.71-.04-3.035.353-1.324.917-2.36 1.695-3.107.779-.746 1.69-1.118 2.735-1.118 1.044 0 1.751.36 2.12 1.075.369.717.371 1.747.012 3.091l-.003-.003Zm1.886-7.052-.54 2.015c-.233-.727-.682-1.305-1.349-1.734-.674-.429-1.501-.642-2.488-.642-1.213 0-2.383.313-3.501.939-1.116.626-2.095 1.504-2.93 2.641s-1.445 2.433-1.838 3.886c-.39 1.458-.466 2.737-.233 3.85.235 1.108.742 1.964 1.525 2.56.782.595 1.79.895 3.019.895.987 0 1.931-.205 2.826-.618a6.619 6.619 0 0 0 2.274-1.704l-.562 2.101h4.166l3.804-14.185h-4.166l-.007-.004Zm21.665.005.003-.004h-2.561c-.082 0-.154.004-.229.005h-1.329l-.682.948-.169.224-.072.113-5.399 7.52-1.116-8.806h-4.421l2.239 13.382-4.945 6.848h4.408l1.196-1.696c.033-.05.064-.092.104-.145l1.397-1.983.04-.056 6.256-8.87 5.275-7.466.008-.005h-.003v-.01Z" fill="#2B2B2B"/></g><defs><clipPath id="a"><path fill="#fff" transform="translate(.924)" d="M0 0h152.163v45.365H0z"/></clipPath></defs></svg>