<svg width="134" height="46" fill="none" xmlns="http://www.w3.org/2000/svg"><g clip-path="url(#a)"><path d="M132.578 17.187c0-.51-.359-.851-.949-.851l-1.161.02.021 2.598h.633v-.894h.38l.549.894h.738l-.654-1a.867.867 0 0 0 .443-.767Zm-1.076.34h-.401v-.66h.464a.326.326 0 0 1 .359.277v.022a.38.38 0 0 1-.268.35.37.37 0 0 1-.154.012Zm-93.61 11.666c-1.076 0-1.814-.852-1.814-2.107v-5.727h4.431v-4.044h-4.42l-.043-4.64h-4.895l.042 15.454c0 3.129 2.068 5.258 5.106 5.258 1.604 0 3.123-.235 4.326-.788v-3.938c-.854.4-1.792.582-2.732.532Zm11.691-12.134c-4.558 0-8.06 3.577-8.06 8.324 0 4.704 3.502 7.982 8.334 7.982 2.723 0 5.276-.979 6.838-3.001l-3.757-1.724c-.76.702-1.92.979-2.954.979-1.688 0-3.376-.873-3.608-2.661H57.58A7.672 7.672 0 0 0 57.834 25c0-4.875-3.524-7.94-8.24-7.94h-.01Zm-3.207 6.77c.147-2.129 1.667-3.108 3.334-3.108 1.878 0 3.292 1.064 3.292 2.895v.213h-6.626Zm-19.879 5.364c-1.076 0-1.814-.852-1.814-2.107v-5.727h4.431v-4.044h-4.42l-.043-4.64h-4.896l.043 15.454c0 3.129 2.068 5.258 5.106 5.258 1.604 0 3.123-.235 4.326-.788v-3.938a5.674 5.674 0 0 1-2.733.532ZM9.3 17.059c-4.2 0-8.61 2.789-8.61 8.409 0 4.683 3.124 7.961 7.07 7.961 2.258 0 3.967-.915 5.085-2.533l.148 2.256h4.738V25.66c0-5.705-4.168-8.6-8.43-8.6Zm0 12.049c-2.131 0-3.672-1.597-3.672-3.853 0-2.256 1.52-3.853 3.672-3.853 1.984 0 3.63 1.745 3.63 3.853 0 2.107-1.646 3.853-3.63 3.853Zm122.097-13.943c-1.54.021-2.532 1.022-2.511 2.512.021 1.49 1.034 2.469 2.575 2.448 1.498-.022 2.511-1.022 2.49-2.534-.021-1.51-1.034-2.448-2.554-2.426Zm.064 4.534c-1.203.021-2.026-.788-2.026-2.022 0-1.235.781-2.065 1.983-2.086 1.203-.022 2.005.787 2.026 2.043 0 1.213-.802 2.044-1.973 2.065h-.01Zm-23.993-2.363-3.419 10.005-3.461-10.005H95.27l6.373 15.795h4.769l6.373-15.795h-5.317Zm12.682-.277c-4.558 0-8.061 3.577-8.061 8.324 0 4.704 3.503 7.982 8.335 7.982 2.722 0 5.276-.979 6.837-3.001l-3.756-1.724c-.76.702-1.92.979-2.954.979-1.688 0-3.376-.873-3.609-2.661h11.206A7.702 7.702 0 0 0 128.4 25c0-4.875-3.524-7.94-8.251-7.94Zm3.418 6.77h-6.626c.148-2.129 1.667-3.108 3.335-3.108 1.878 0 3.291 1.064 3.291 2.895v.213ZM91.492 10.396c-1.73 0-3.039 1.171-3.039 2.81 0 1.64 1.309 2.853 3.04 2.853 1.73 0 3.038-1.192 3.038-2.853 0-1.66-1.287-2.81-3.039-2.81Zm-22.22 6.642a5.693 5.693 0 0 0-2.836.704 5.756 5.756 0 0 0-2.124 2.02l-.168-2.426h-4.727v15.795h4.895v-8.28c.106-1.98 1.689-3.492 3.42-3.492 1.94 0 2.827 1.47 2.827 3.321v8.43h4.874v-9.196c0-4.002-2.416-6.876-6.161-6.876Zm14.94 12.155c-1.076 0-1.815-.852-1.815-2.107v-5.727h4.432v-4.044h-4.432l-.042-4.64h-4.896l.042 15.454c0 3.129 2.068 5.258 5.107 5.258 1.604 0 3.123-.235 4.326-.788v-3.938c-.85.4-1.785.583-2.722.532Zm4.811-11.857v15.795h4.938V17.336a4.441 4.441 0 0 1-4.938 0Z" fill="#2B2B2B"/></g><defs><clipPath id="a"><path fill="#fff" transform="translate(.69)" d="M0 0h133.261v45.365H0z"/></clipPath></defs></svg>