<svg width="191" height="46" fill="none" xmlns="http://www.w3.org/2000/svg"><g clip-path="url(#a)" fill="#2B2B2B"><path d="M20.617 26.786a.575.575 0 0 1 .071.408 5.636 5.636 0 0 1-1.801 3.037.476.476 0 0 0-.123.14.188.188 0 0 0 0 .157.177.177 0 0 0 .148.062c.132-.035.259-.085.38-.149a4.868 4.868 0 0 0 1.39-1.183c.232-.281.46-.562.68-.853a5.848 5.848 0 0 0 .902-1.9c.167-.553.309-1.112.482-1.665.07-.203.156-.4.256-.59a.958.958 0 0 1 .14-.16h.043c.043.144.095.284.126.432.081.466.093.942.034 1.412a9.196 9.196 0 0 1-.374 1.8 4.476 4.476 0 0 1-.519 1.02 14.009 14.009 0 0 1-1.906 2.472c-.534.516-1.112.985-1.727 1.403a.456.456 0 0 0-.12.09.228.228 0 0 0-.053.154.173.173 0 0 0 .133.093 1.59 1.59 0 0 0 .383-.05 4.633 4.633 0 0 0 1.573-.803 10.341 10.341 0 0 0 3.101-3.677 9.357 9.357 0 0 0 .893-3.015c.076-.662.083-1.33.022-1.993a2.78 2.78 0 0 1 .03-1.023c.02-.077.048-.151.084-.222.084-.16.204-.17.285 0 .084.16.146.332.185.51.17.85.223 1.718.157 2.583a12.688 12.688 0 0 1-1.044 4.066 9.67 9.67 0 0 1-2.543 3.45c-.355.31-.695.618-1.062.909a8.055 8.055 0 0 1-1.412.822 13.214 13.214 0 0 1-3.47 1.158c-.738.128-1.488.178-2.237.148-.367 0-.738-.024-1.106-.043a8.595 8.595 0 0 1-2.434-.494 17.35 17.35 0 0 1-3.253-1.526 9.594 9.594 0 0 1-2.997-2.901 11.476 11.476 0 0 1-.995-1.75.238.238 0 0 0-.17-.144 1.38 1.38 0 0 1-.927-.776 9.993 9.993 0 0 1-.531-1.73 13.452 13.452 0 0 1-.362-2.913c.01-.622.066-1.241.17-1.854.117-.832.325-1.65.618-2.438.26-.69.624-1.334 1.081-1.912.266-.334.485-.708.745-1.047a11.669 11.669 0 0 1 6.664-4.326c.513-.123 1.026-.253 1.545-.349a15.09 15.09 0 0 1 1.402-.185c.55-.05 1.1-.093 1.653-.1a10.71 10.71 0 0 1 6.22 1.889c.208.125.395.283.556.466.118.144.197.317.228.5a.229.229 0 0 0 .071.112c.436.42.9.819 1.301 1.27a5.916 5.916 0 0 1 1.347 2.45 2.933 2.933 0 0 1-.213 2.236 3.54 3.54 0 0 1-1.236 1.236 3.055 3.055 0 0 1-1.928.522 2.634 2.634 0 0 1-1.705-.732c-.484-.503-1-.975-1.545-1.412a19.11 19.11 0 0 0-1.103-.772 4.042 4.042 0 0 0-1.474-.532 7.468 7.468 0 0 0-1.798-.108 6.149 6.149 0 0 0-3.63 1.273 6.73 6.73 0 0 0-1.884 2.21 4.9 4.9 0 0 0-.486 1.674c-.05.36-.079.721-.086 1.084a6.661 6.661 0 0 0 .788 2.96 6.896 6.896 0 0 0 1.42 1.89c.54.485 1.136.9 1.777 1.237a5.82 5.82 0 0 0 2.364.689 6.447 6.447 0 0 0 3.191-.48 5.142 5.142 0 0 0 1.317-.89 7.478 7.478 0 0 0 1.668-2.05c.16-.282.272-.59.408-.887a4.3 4.3 0 0 1 .133-.266.639.639 0 0 1 .099-.114m161.792-4.718c2.225 0 3.707 1.656 3.707 4.103s-1.482 4.078-3.707 4.078c-2.224 0-3.732-1.631-3.732-4.103 0-2.471 1.482-4.078 3.732-4.078Zm-65.128-.247c1.731 0 2.867.964 3.14 2.496h-6.254c.272-1.545 1.409-2.496 3.114-2.496Zm-56.056 6.03c0 1.508-.89 2.398-2.471 2.398-1.582 0-2.522-.89-2.522-2.398V19.41a.309.309 0 0 0-.308-.31H52.72a.31.31 0 0 0-.31.31v8.6c0 3.758 2.2 5.636 4.968 5.636 1.978 0 3.312-1.21 3.88-3.04v2.348a.327.327 0 0 0 .31.31h3.238a.31.31 0 0 0 .309-.31V19.41a.31.31 0 0 0-.31-.31h-3.25a.309.309 0 0 0-.308.31l-.013 8.453Zm33.268 0c0 1.508-.89 2.398-2.471 2.398-1.583 0-2.521-.89-2.521-2.398V19.41a.31.31 0 0 0-.31-.31H85.99a.31.31 0 0 0-.31.31v8.6c0 3.758 2.2 5.636 4.969 5.636 1.977 0 3.312-1.21 3.88-3.04v2.348a.328.328 0 0 0 .309.31h3.237a.31.31 0 0 0 .31-.31V19.41a.31.31 0 0 0-.31-.309h-3.25a.31.31 0 0 0-.309.309l-.012 8.453Zm7.044 5.092c0 .082.033.16.09.219a.31.31 0 0 0 .22.09h3.188a.31.31 0 0 0 .309-.309v-7.76c0-1.953 1.236-2.324 2.966-2.324h1.285a.31.31 0 0 0 .309-.31v-3.15a.308.308 0 0 0-.309-.31h-.309c-2.076 0-3.361.965-3.954 3.313V19.42a.31.31 0 0 0-.309-.309h-3.189a.31.31 0 0 0-.309.309l.012 13.532Zm49.655 0a.31.31 0 0 0 .309.31h3.213a.31.31 0 0 0 .309-.31v-8.626c0-1.384.766-2.249 2.224-2.249 1.459 0 2.275.865 2.275 2.25v8.625a.308.308 0 0 0 .308.31h3.238a.309.309 0 0 0 .309-.31v-8.626c0-1.384.791-2.249 2.225-2.249 1.434 0 2.274.865 2.274 2.25v8.625a.325.325 0 0 0 .308.31h3.214a.31.31 0 0 0 .309-.31v-8.75c0-3.657-2.163-5.511-4.919-5.511-2.323 0-3.509 1.508-4.127 3.398a4.16 4.16 0 0 0-4.017-3.398c-2.026 0-2.941 1.236-3.633 3.065v-2.348a.31.31 0 0 0-.309-.31h-3.213a.31.31 0 0 0-.309.31l.012 13.544Zm39.027-6.772c0-4.152-2.447-7.49-6.377-7.49-2.57 0-4.547 1.36-5.165 3.288v-2.57a.31.31 0 0 0-.309-.31h-3.226a.31.31 0 0 0-.309.31V38.44a.31.31 0 0 0 .309.309h3.238a.308.308 0 0 0 .309-.309v-8.033c.618 1.928 2.595 3.263 5.165 3.263 3.93 0 6.378-3.312 6.378-7.49h-.013Zm-53.535-.834 2.493-6.73 2.5 6.73h-4.993Zm-12.358.84c0-4.226-2.521-7.662-7.069-7.662-4.276 0-7.069 3.436-7.069 7.662 0 4.375 3.115 7.637 7.86 7.637 2.571 0 4.77-1.137 5.808-2.644a.33.33 0 0 0 .018-.375.342.342 0 0 0-.092-.095l-2.163-1.928a.285.285 0 0 0-.42.05 3.9 3.9 0 0 1-3.312 1.68c-1.829 0-3.51-.865-3.757-3.237h9.887a.286.286 0 0 0 .226-.082.277.277 0 0 0 .083-.227v-.779Zm-50.36-4.078a.309.309 0 0 0 .31.309h2.076v6.636c0 2.67 1.359 4.227 4.202 4.227h2.644a.31.31 0 0 0 .309-.31v-2.78a.285.285 0 0 0-.308-.309h-1.796c-.89 0-1.186-.309-1.186-1.063v-6.395h2.94a.31.31 0 0 0 .31-.309v-2.694a.309.309 0 0 0-.31-.309h-2.94v-4.078a.309.309 0 0 0-.31-.31h-3.284a.286.286 0 0 0-.309.31v4.053h-2.076a.309.309 0 0 0-.309.31l.037 2.712Zm55.513 10.875a.224.224 0 0 0 .198.309h3.781a.426.426 0 0 0 .42-.309l1.508-4.103h7.613l1.544 4.103a.424.424 0 0 0 .421.309h3.855a.233.233 0 0 0 .103-.03.224.224 0 0 0 .095-.279l-6.921-17.969a.397.397 0 0 0-.395-.272h-4.919a.402.402 0 0 0-.419.272l-6.884 17.969ZM43.353 29.82c-3.287 0-5.487-2.447-5.487-5.833s2.2-5.833 5.487-5.833a5.83 5.83 0 0 1 4.634 2.373.292.292 0 0 0 .358.127.291.291 0 0 0 .112-.078l2.62-2.249a.34.34 0 0 0 .05-.445c-1.607-2.348-4.326-3.534-7.762-3.534-5.87 0-9.738 4.375-9.738 9.64 0 5.313 3.88 9.688 9.738 9.688 3.436 0 6.328-1.458 7.761-3.584a.336.336 0 0 0-.05-.445l-2.644-2.162a.268.268 0 0 0-.445.05 5.815 5.815 0 0 1-4.634 2.273v.012Zm28.498-16.078h-3.275a.284.284 0 0 0-.31.31v18.907a.309.309 0 0 0 .31.31h3.26a.31.31 0 0 0 .308-.31V14.045a.284.284 0 0 0-.309-.309"/></g><defs><clipPath id="a"><path fill="#fff" transform="translate(.95)" d="M0 0h189.967v45.365H0z"/></clipPath></defs></svg>