<svg width="179" height="46" fill="none" xmlns="http://www.w3.org/2000/svg"><g clip-path="url(#a)"><path d="M52.523 20.038v9.085h2.265a4.325 4.325 0 0 0 3.08-1.356 4.55 4.55 0 0 0 1.242-3.194 4.473 4.473 0 0 0-1.224-3.208 4.248 4.248 0 0 0-3.098-1.328h-2.264l-.002.001Zm2.265-2.849c4.222 0 7.416 3.272 7.416 7.384s-3.194 7.402-7.416 7.402h-4.996a.362.362 0 0 1-.358-.367V17.572c0-.204.16-.369.358-.369l4.996-.014Zm18.298 12.25c1.918.006 3.65-1.173 4.387-2.988a4.949 4.949 0 0 0-1.014-5.298 4.652 4.652 0 0 0-5.163-1.065c-1.772.748-2.93 2.519-2.933 4.485 0 2.68 2.112 4.854 4.724 4.867Zm.001-12.585c4.444 0 7.841 3.503 7.841 7.719s-3.397 7.719-7.842 7.719c-4.444 0-7.812-3.485-7.812-7.719 0-4.233 3.397-7.719 7.812-7.719h.001ZM91.723 29.44c2.614-.007 4.73-2.184 4.727-4.864-.004-2.682-2.123-4.853-4.736-4.855-2.615 0-4.736 2.171-4.74 4.852 0 1.291.5 2.53 1.391 3.442a4.683 4.683 0 0 0 3.357 1.425h.001Zm-.001-12.586c4.43 0 7.827 3.486 7.827 7.719 0 4.234-3.41 7.719-7.827 7.719-4.415 0-7.841-3.485-7.841-7.719 0-4.233 3.397-7.719 7.841-7.719Zm18.189 3.184h-3.194v3.91h3.194a1.847 1.847 0 0 0 1.372-.523c.37-.358.58-.855.585-1.377a1.96 1.96 0 0 0-.555-1.44 1.86 1.86 0 0 0-1.402-.567v-.003Zm-6.284-2.466c0-.204.162-.369.359-.369H110c2.867 0 4.941 2.155 4.941 4.86.022 1.83-.977 3.51-2.572 4.33l2.773 5.028a.375.375 0 0 1 .014.392.353.353 0 0 1-.339.18h-2.434a.36.36 0 0 1-.326-.198l-2.673-4.976h-2.679v4.777a.37.37 0 0 1-.102.259.37.37 0 0 1-.256.11h-2.345a.36.36 0 0 1-.332-.23.352.352 0 0 1-.026-.139l-.016-14.023-.001-.001Zm19.368 2.535v9.087h2.264a4.325 4.325 0 0 0 3.082-1.352 4.548 4.548 0 0 0 1.244-3.192 4.474 4.474 0 0 0-1.221-3.213 4.245 4.245 0 0 0-3.104-1.329h-2.265Zm2.264-2.852c4.222 0 7.416 3.275 7.416 7.395 0 4.12-3.194 7.396-7.416 7.396h-4.981a.363.363 0 0 1-.358-.369V17.642c0-.204.161-.37.358-.37l4.982-.017h-.001Zm16.837 3.614-1.752 4.858h3.501l-1.749-4.858Zm-2.78 7.604-1.147 3.234a.358.358 0 0 1-.358.254h-2.488a.354.354 0 0 1-.327-.154.368.368 0 0 1-.031-.367l5.376-14.023a.355.355 0 0 1 .358-.243h2.783a.358.358 0 0 1 .36.243l5.376 14.022a.375.375 0 0 1-.175.489.353.353 0 0 1-.184.032h-2.488a.358.358 0 0 1-.358-.254l-1.147-3.234h-5.55Zm12.786-7.29c0-2.321 1.957-4.329 5.047-4.329a6.304 6.304 0 0 1 4.482 1.732.367.367 0 0 1 .116.27.372.372 0 0 1-.116.27l-1.378 1.404a.36.36 0 0 1-.254.108.35.35 0 0 1-.255-.108 3.576 3.576 0 0 0-2.391-.967c-1.236 0-2.149.736-2.149 1.585 0 2.745 7.304 1.161 7.304 6.442-.004 2.677-1.976 4.702-5.462 4.702a7.216 7.216 0 0 1-5.211-2.147.372.372 0 0 1 0-.54l1.333-1.368a.36.36 0 0 1 .26-.113.356.356 0 0 1 .26.113 4.546 4.546 0 0 0 3.15 1.317c1.545 0 2.562-.846 2.562-1.905 0-2.746-7.3-1.16-7.3-6.443l.002-.022Zm23.65-3.63v5.55h-6.182v-5.55a.356.356 0 0 0-.22-.338.356.356 0 0 0-.138-.03h-2.345a.356.356 0 0 0-.255.11.356.356 0 0 0-.103.258v14.02c0 .203.162.369.358.369h2.345a.365.365 0 0 0 .358-.369v-5.637h6.178v5.637c0 .203.161.369.358.369h2.345a.364.364 0 0 0 .358-.369v-14.02a.368.368 0 0 0-.103-.258.36.36 0 0 0-.255-.11h-2.345a.362.362 0 0 0-.354.368ZM36.271 19.057c-1.627-3.015-4.809-4.892-8.27-4.88H1.817a.902.902 0 0 0-.827.552.881.881 0 0 0 .194.966l5.704 5.66a2.7 2.7 0 0 0 1.903.782h18.46c1.315-.014 2.39 1.028 2.404 2.325.014 1.297-1.04 2.36-2.356 2.373H14.573a.9.9 0 0 0-.83.55.88.88 0 0 0 .193.968l5.708 5.664a2.703 2.703 0 0 0 1.904.781h5.756c7.488 0 13.15-7.9 8.967-15.744" fill="#FF3008"/></g><defs><clipPath id="a"><path fill="#fff" transform="translate(.918)" d="M0 0h177.681v45.365H0z"/></clipPath></defs></svg>