<svg viewBox="0 0 37 36" fill="none" xmlns="http://www.w3.org/2000/svg">
<path d="M17.9998 36C15.1223 35.9999 12.2867 35.31 9.7308 33.9881C7.17491 32.6662 4.97319 30.7508 3.31024 28.4024C1.64728 26.0541 0.571566 23.3413 0.17327 20.4915C-0.225026 17.6417 0.0657097 14.7379 1.0211 12.0236C1.97649 9.30935 3.56869 6.86368 5.66422 4.89166C7.75974 2.91964 10.2975 1.47875 13.0647 0.689793C15.832 -0.0991652 18.748 -0.213195 21.5684 0.357264C24.3888 0.927723 27.0314 2.16604 29.2745 3.96841L28.4956 4.93269C25.3618 2.42528 21.4308 1.1283 17.4201 1.27844C13.4094 1.42857 9.58637 3.01582 6.64873 5.75052C3.7111 8.48521 1.8547 12.185 1.41832 16.1747C0.981948 20.1645 1.99469 24.1781 4.27173 27.4831C6.54877 30.7882 9.93829 33.1643 13.8217 34.1778C17.7051 35.1914 21.8235 34.7748 25.4253 33.0041C29.0271 31.2334 31.8721 28.2267 33.4412 24.5326C35.0103 20.8385 35.1988 16.7034 33.9723 12.8819L35.2085 12.4986C36.0741 15.2037 36.2876 18.0751 35.8318 20.8785C35.376 23.6819 34.2637 26.3377 32.5857 28.6293C30.9078 30.9208 28.7117 32.7831 26.1768 34.064C23.6418 35.345 20.8399 36.0084 17.9998 36Z" fill="#16D1E2"/>
<path d="M15.5646 26.2586L6.89844 17.5924L7.77618 16.7147L15.5646 24.5031L34.8751 5.20508L35.7405 6.07046L15.5646 26.2586Z" fill="#16D1E2"/>
</svg>